<svg xmlns="http://www.w3.org/2000/svg" xmlns:xlink="http://www.w3.org/1999/xlink" version="1.1" width="96.423229pt" height="115.11004pt" viewBox="0 0 96.423229 115.11004">
<defs>
<clipPath id="clip_0">
<path d="M0 0H97V116H0Z"/>
</clipPath>
<clipPath id="clip_1">
<path d="M0 0H97V116H0Z"/>
</clipPath>
<clipPath id="clip_2">
<path d="M0 0H97V116H0Z"/>
</clipPath>
<clipPath id="clip_3">
<path d="M0 0H97V116H0Z"/>
</clipPath>
<clipPath id="clip_4">
<path d="M0 0H97V116H0Z"/>
</clipPath>
<clipPath id="clip_5">
<path d="M0 0H97V116H0Z"/>
</clipPath>
<clipPath id="clip_6">
<path d="M0 0H97V116H0Z"/>
</clipPath>
<clipPath id="clip_7">
<path d="M0 0H97V116H0Z"/>
</clipPath>
<clipPath id="clip_8">
<path d="M0 0H97V116H0Z"/>
</clipPath>
<clipPath id="clip_9">
<path d="M0 0H97V116H0Z"/>
</clipPath>
<path id="font_10_1" d="M.07324219 0V.7158203H.16796875V.084472659H.5205078V0H.07324219Z"/>
<path id="font_10_2" d="M.40429688 .06402588C.37174479 .03633626 .34041343 .016789755 .31030274 .0053863527 .28019206-.0060170495 .24788411-.01171875 .2133789-.01171875 .15641277-.01171875 .11263021 .0022074383 .08203125 .030059815 .051432294 .05791219 .036132814 .09350077 .036132814 .13682556 .036132814 .16222637 .04191081 .18542989 .053466798 .20643616 .06502279 .22745259 .08015951 .24431356 .09887695 .25701905 .1175944 .26972453 .13867188 .2793325 .16210938 .2858429 .17936199 .29041038 .20540364 .29480998 .24023438 .29904176 .3111979 .30744425 .363444 .3174642 .39697267 .32910157 .3972982 .34109498 .39746095 .3487142 .39746095 .35195924 .39746095 .38763429 .38916017 .4127655 .3725586 .4273529 .35009767 .44713847 .31673179 .45703126 .27246095 .45703126 .2311198 .45703126 .20060222 .44978843 .1809082 .43530274 .16121419 .42081706 .14664714 .39518229 .13720703 .35839845L.05126953 .3701172C.05908203 .40701295 .0719401 .43680827 .08984375 .45950318 .1077474 .4821981 .1336263 .4996643 .16748047 .51190188 .20133464 .5241496 .24055989 .53027346 .28515626 .53027346 .3294271 .53027346 .36539714 .5250651 .3930664 .51464846 .4207357 .50423178 .44108073 .49112956 .45410157 .4753418 .4671224 .45955406 .47623698 .43961589 .4814453 .41552735 .484375 .40055339 .48583985 .37353517 .48583985 .33447267V.21728516C.48583985 .13557942 .48771159 .08390299 .49145509 .06225586 .49519859 .040608724 .5026042 .019856772 .5136719 0H.421875C.4127604 .018249512 .40690104 .039591474 .40429688 .06402588M.39697267 .2607422C.36507163 .24760945 .31722007 .2364502 .25341798 .2272644 .21728516 .22203572 .19173177 .21615093 .17675781 .20960999 .16178386 .20307923 .15022786 .19351705 .14208985 .18092346 .13395183 .16834004 .12988281 .15436809 .12988281 .13900757 .12988281 .115478519 .13875325 .09586588 .15649414 .08016968 .17423503 .06448364 .20019531 .056640626 .234375 .056640626 .26822917 .056640626 .29833985 .064081829 .32470704 .07896423 .35107423 .09384664 .37044273 .11420695 .3828125 .14004517 .3922526 .16000366 .39697267 .18944295 .39697267 .22836304V.2607422Z"/>
<path id="font_10_3" d="M.14697266 0H.06542969V.7158203H.15332031V.45950318C.19042969 .50668337 .23779297 .53027346 .29541017 .53027346 .3273112 .53027346 .35750328 .5238444 .38598634 .5109863 .4144694 .49812828 .4379069 .48006187 .45629884 .4567871 .47469078 .43351237 .48909507 .4054362 .49951173 .3725586 .5099284 .339681 .5151367 .30452476 .5151367 .26708985 .5151367 .17822266 .49316407 .10953776 .44921876 .061035158 .40527345 .012532552 .35253907-.01171875 .29101563-.01171875 .2298177-.01171875 .18180339 .014160156 .14697266 .06591797V0M.1459961 .26316834C.1459961 .20129903 .15445964 .15659587 .17138672 .12905884 .19905599 .08403524 .23649089 .061523439 .2836914 .061523439 .32210288 .061523439 .355306 .078125 .38330079 .111328128 .41129557 .14453125 .42529298 .19401042 .42529298 .25976563 .42529298 .32713828 .41186524 .37685649 .38500978 .4089203 .3581543 .44099427 .3256836 .45703126 .28759767 .45703126 .2491862 .45703126 .21598308 .4404297 .18798828 .40722657 .15999349 .37402345 .1459961 .32600404 .1459961 .26316834Z"/>
<path id="font_10_4" d="M.42089845 .16699219 .51171877 .15576172C.49739585 .10270182 .47086589 .061523439 .4321289 .032226564 .39339195 .0029296876 .34391276-.01171875 .2836914-.01171875 .20784505-.01171875 .14770508 .01163737 .103271488 .05834961 .05883789 .10506185 .036621095 .17057292 .036621095 .2548828 .036621095 .3421224 .05908203 .40983073 .104003909 .4580078 .14892578 .5061849 .20719402 .53027346 .2788086 .53027346 .34814454 .53027346 .40478517 .5067088 .44873048 .45957948 .49267579 .41246034 .51464846 .34616599 .51464846 .2606964 .51464846 .25549827 .51448568 .247701 .51416018 .23730469H.1274414C.13069661 .1805013 .14680989 .13700359 .17578125 .10681152 .20475261 .07661947 .24088542 .061523439 .2841797 .061523439 .31640626 .061523439 .34391276 .0699056 .36669923 .08666992 .3894857 .10344442 .4075521 .1302185 .42089845 .16699219M.13232422 .31054688H.421875C.41796876 .3534546 .40690104 .38563539 .38867188 .40708924 .3606771 .4403839 .3243815 .45703126 .27978517 .45703126 .23942058 .45703126 .20548503 .44374085 .17797852 .41716004 .150472 .3905894 .1352539 .35505168 .13232422 .31054688Z"/>
<path id="font_10_5" d="M.063964847 0V.7158203H.15185547V0H.063964847Z"/>
<clipPath id="clip_11">
<path d="M0 0H97V116H0Z"/>
</clipPath>
<path id="font_10_6" d="M.030761719 .15527344 .11767578 .16894531C.122558597 .13426717 .1361491 .107691448 .15844727 .08921814 .18074544 .070755008 .21191406 .061523439 .25195313 .061523439 .29231773 .061523439 .32226563 .06967672 .34179688 .08598328 .36132813 .10230001 .37109376 .12143453 .37109376 .14338684 .37109376 .16309102 .36246745 .17859395 .34521485 .18989563 .33317057 .1976471 .30322267 .20749919 .2553711 .2194519 .19091797 .23573812 .14624024 .24982707 .12133789 .26171876 .09643555 .27361045 .077555339 .29006449 .064697269 .31108094 .05183919 .33209739 .045410158 .35531108 .045410158 .38072206 .045410158 .40385438 .05069987 .4252777 .061279298 .44499208 .07185873 .46470643 .08626302 .4810791 .10449219 .4941101 .11816406 .5042114 .13680013 .5127614 .16040039 .51976016 .18400066 .526769 .20930989 .53027346 .23632813 .53027346 .27701823 .53027346 .31274415 .52437338 .34350587 .51257327 .37426759 .50078329 .39697267 .48480735 .4116211 .4646454 .42626954 .44449363 .4363607 .4175415 .44189454 .38378907L.35595704 .3720703C.35205079 .39876304 .34073893 .41959635 .32202149 .4345703 .30330406 .44954429 .27685548 .45703126 .24267578 .45703126 .2023112 .45703126 .17350261 .45038859 .15625 .43710328 .13899739 .42382813 .1303711 .40827943 .1303711 .39045716 .1303711 .37912498 .13395183 .3689219 .14111328 .35984803 .14827474 .35045878 .1595052 .34268699 .17480469 .3365326 .18359375 .33328758 .20947266 .32583619 .2524414 .31417848 .31461589 .29758708 .35799156 .28400675 .38256837 .2734375 .40714518 .26286827 .42643229 .24749756 .4404297 .22732544 .4544271 .2071635 .46142579 .18212383 .46142579 .15220642 .46142579 .12292989 .45288087 .09536234 .43579103 .069503787 .41870118 .043655397 .39404298 .02365621 .3618164 .009506226 .32958985-.0046437585 .2931315-.01171875 .2524414-.01171875 .1850586-.01171875 .13370769 .002319336 .09838867 .030395508 .063069667 .05847168 .040527345 .100097659 .030761719 .15527344Z"/>
<clipPath id="clip_12">
<path d="M37.898 47.402H56.777V54.644H37.898Z"/>
</clipPath>
<clipPath id="clip_13">
<path d="M0 0H97V116H0Z"/>
</clipPath>
<clipPath id="clip_14">
<path d="M0 0H97V116H0Z"/>
</clipPath>
<clipPath id="clip_15">
<path d="M0 0H97V116H0Z"/>
</clipPath>
<clipPath id="clip_16">
<path d="M1.105 64.441H39.765V72.261H1.105Z"/>
</clipPath>
<clipPath id="clip_17">
<path d="M0 0H97V116H0Z"/>
</clipPath>
<clipPath id="clip_18">
<path d="M0 0H97V116H0Z"/>
</clipPath>
<clipPath id="clip_19">
<path d="M0 0H97V116H0Z"/>
</clipPath>
<clipPath id="clip_20">
<path d="M0 0H97V116H0Z"/>
</clipPath>
<clipPath id="clip_21">
<path d="M0 0H97V116H0Z"/>
</clipPath>
<clipPath id="clip_22">
<path d="M0 0H97V116H0Z"/>
</clipPath>
<clipPath id="clip_23">
<path d="M0 0H97V116H0Z"/>
</clipPath>
<clipPath id="clip_24">
<path d="M51.039 64.062H93.465V72.592998H51.039Z"/>
</clipPath>
<clipPath id="clip_25">
<path d="M0 0H97V116H0Z"/>
</clipPath>
<clipPath id="clip_26">
<path d="M0 0H97V116H0Z"/>
</clipPath>
<clipPath id="clip_27">
<path d="M0 0H97V116H0Z"/>
</clipPath>
<clipPath id="clip_28">
<path d="M0 0H97V116H0Z"/>
</clipPath>
<clipPath id="clip_29">
<path d="M0 0H97V116H0Z"/>
</clipPath>
<clipPath id="clip_30">
<path d="M0 0H97V116H0Z"/>
</clipPath>
<clipPath id="clip_31">
<path d="M0 0H97V116H0Z"/>
</clipPath>
<clipPath id="clip_32">
<path d="M0 0H97V116H0Z"/>
</clipPath>
<clipPath id="clip_33">
<path d="M0 0H97V116H0Z"/>
</clipPath>
<clipPath id="clip_34">
<path d="M61.094 19.746H96.438V28.285H61.094Z"/>
</clipPath>
<clipPath id="clip_35">
<path d="M0 0H97V116H0Z"/>
</clipPath>
<clipPath id="clip_36">
<path d="M0 0H97V116H0Z"/>
</clipPath>
<clipPath id="clip_37">
<path d="M0 0H97V116H0Z"/>
</clipPath>
<clipPath id="clip_38">
<path d="M0 0H97V116H0Z"/>
</clipPath>
<clipPath id="clip_39">
<path d="M0 0H97V116H0Z"/>
</clipPath>
<clipPath id="clip_40">
<path d="M0 0H97V116H0Z"/>
</clipPath>
<clipPath id="clip_41">
<path d="M0 0H97V116H0Z"/>
</clipPath>
<clipPath id="clip_42">
<path d="M0 0H97V116H0Z"/>
</clipPath>
<clipPath id="clip_43">
<path d="M0 0H97V116H0Z"/>
</clipPath>
<clipPath id="clip_44">
<path d="M0 0H97V116H0Z"/>
</clipPath>
<clipPath id="clip_45">
<path d="M0 0H97V116H0Z"/>
</clipPath>
<clipPath id="clip_46">
<path d="M0 0H97V116H0Z"/>
</clipPath>
<clipPath id="clip_47">
<path d="M0 0H97V116H0Z"/>
</clipPath>
<clipPath id="clip_48">
<path d="M0 0H97V116H0Z"/>
</clipPath>
<clipPath id="clip_49">
<path d="M0 0H97V116H0Z"/>
</clipPath>
<clipPath id="clip_50">
<path d="M0 0H97V116H0Z"/>
</clipPath>
<clipPath id="clip_51">
<path d="M0 0H97V116H0Z"/>
</clipPath>
<clipPath id="clip_52">
<path d="M0 0H97V116H0Z"/>
</clipPath>
<clipPath id="clip_53">
<path d="M0 0H97V116H0Z"/>
</clipPath>
<clipPath id="clip_54">
<path d="M0 0H97V116H0Z"/>
</clipPath>
<clipPath id="clip_55">
<path d="M0 0H97V116H0Z"/>
</clipPath>
<clipPath id="clip_56">
<path d="M0 0H97V116H0Z"/>
</clipPath>
<clipPath id="clip_57">
<path d="M0 0H97V116H0Z"/>
</clipPath>
<clipPath id="clip_58">
<path d="M0 0H97V116H0Z"/>
</clipPath>
<clipPath id="clip_59">
<path d="M0 0H97V116H0Z"/>
</clipPath>
<clipPath id="clip_60">
<path d="M0 0H97V116H0Z"/>
</clipPath>
<clipPath id="clip_61">
<path d="M0 0H97V116H0Z"/>
</clipPath>
<clipPath id="clip_62">
<path d="M0 0H97V116H0Z"/>
</clipPath>
<clipPath id="clip_63">
<path d="M0 0H97V116H0Z"/>
</clipPath>
<clipPath id="clip_64">
<path d="M0 0H97V116H0Z"/>
</clipPath>
<clipPath id="clip_65">
<path d="M0 0H97V116H0Z"/>
</clipPath>
<clipPath id="clip_66">
<path d="M0 0H97V116H0Z"/>
</clipPath>
<clipPath id="clip_67">
<path d="M0 0H97V116H0Z"/>
</clipPath>
<clipPath id="clip_68">
<path d="M0 0H97V116H0Z"/>
</clipPath>
<clipPath id="clip_69">
<path d="M0 0H97V116H0Z"/>
</clipPath>
<clipPath id="clip_70">
<path d="M0 0H97V116H0Z"/>
</clipPath>
<clipPath id="clip_71">
<path d="M0 0H97V116H0Z"/>
</clipPath>
<clipPath id="clip_72">
<path d="M0 0H97V116H0Z"/>
</clipPath>
<clipPath id="clip_73">
<path d="M0 0H97V116H0Z"/>
</clipPath>
<clipPath id="clip_74">
<path d="M0 0H97V116H0Z"/>
</clipPath>
<clipPath id="clip_75">
<path d="M0 0H97V116H0Z"/>
</clipPath>
<clipPath id="clip_76">
<path d="M0 0H97V116H0Z"/>
</clipPath>
<clipPath id="clip_77">
<path d="M0 0H97V116H0Z"/>
</clipPath>
<clipPath id="clip_78">
<path d="M0 0H97V116H0Z"/>
</clipPath>
<clipPath id="clip_79">
<path d="M0 0H97V116H0Z"/>
</clipPath>
<clipPath id="clip_80">
<path d="M0 0H97V116H0Z"/>
</clipPath>
<clipPath id="clip_81">
<path d="M0 0H97V116H0Z"/>
</clipPath>
<clipPath id="clip_82">
<path d="M0 0H97V116H0Z"/>
</clipPath>
<clipPath id="clip_83">
<path d="M0 0H97V116H0Z"/>
</clipPath>
<clipPath id="clip_84">
<path d="M0 0H97V116H0Z"/>
</clipPath>
<clipPath id="clip_85">
<path d="M0 0H97V116H0Z"/>
</clipPath>
<clipPath id="clip_86">
<path d="M0 0H97V116H0Z"/>
</clipPath>
<clipPath id="clip_87">
<path d="M0 0H97V116H0Z"/>
</clipPath>
<clipPath id="clip_88">
<path d="M0 0H97V116H0Z"/>
</clipPath>
<clipPath id="clip_89">
<path d="M0 0H97V116H0Z"/>
</clipPath>
<clipPath id="clip_90">
<path d="M0 0H97V116H0Z"/>
</clipPath>
<clipPath id="clip_91">
<path d="M0 0H97V116H0Z"/>
</clipPath>
<clipPath id="clip_92">
<path d="M0 0H97V116H0Z"/>
</clipPath>
<clipPath id="clip_93">
<path d="M0 0H97V116H0Z"/>
</clipPath>
<clipPath id="clip_94">
<path d="M0 0H97V116H0Z"/>
</clipPath>
<clipPath id="clip_95">
<path d="M0 0H97V116H0Z"/>
</clipPath>
<clipPath id="clip_96">
<path d="M0 0H97V116H0Z"/>
</clipPath>
<clipPath id="clip_97">
<path d="M0 0H97V116H0Z"/>
</clipPath>
<clipPath id="clip_98">
<path d="M0 0H97V116H0Z"/>
</clipPath>
<clipPath id="clip_99">
<path d="M0 0H97V116H0Z"/>
</clipPath>
<clipPath id="clip_100">
<path d="M0 0H97V116H0Z"/>
</clipPath>
<clipPath id="clip_101">
<path d="M0 0H97V116H0Z"/>
</clipPath>
<clipPath id="clip_102">
<path d="M0 0H97V116H0Z"/>
</clipPath>
<clipPath id="clip_103">
<path d="M0 0H97V116H0Z"/>
</clipPath>
<clipPath id="clip_104">
<path d="M0 0H97V116H0Z"/>
</clipPath>
<clipPath id="clip_105">
<path d="M0 0H97V116H0Z"/>
</clipPath>
<clipPath id="clip_106">
<path d="M0 0H97V116H0Z"/>
</clipPath>
<clipPath id="clip_107">
<path d="M0 0H97V116H0Z"/>
</clipPath>
<clipPath id="clip_108">
<path d="M0 0H97V116H0Z"/>
</clipPath>
<clipPath id="clip_109">
<path d="M0 0H97V116H0Z"/>
</clipPath>
<clipPath id="clip_110">
<path d="M0 0H97V116H0Z"/>
</clipPath>
<clipPath id="clip_111">
<path d="M0 0H97V116H0Z"/>
</clipPath>
<clipPath id="clip_112">
<path d="M0 0H97V116H0Z"/>
</clipPath>
<clipPath id="clip_113">
<path d="M0 0H97V116H0Z"/>
</clipPath>
<clipPath id="clip_114">
<path d="M0 0H97V116H0Z"/>
</clipPath>
<clipPath id="clip_115">
<path d="M0 0H97V116H0Z"/>
</clipPath>
<clipPath id="clip_116">
<path d="M0 0H97V116H0Z"/>
</clipPath>
<clipPath id="clip_117">
<path d="M0 0H97V116H0Z"/>
</clipPath>
<clipPath id="clip_118">
<path d="M0 0H97V116H0Z"/>
</clipPath>
<clipPath id="clip_119">
<path d="M0 0H97V116H0Z"/>
</clipPath>
<clipPath id="clip_120">
<path d="M0 0H97V116H0Z"/>
</clipPath>
<clipPath id="clip_121">
<path d="M0 0H97V116H0Z"/>
</clipPath>
<clipPath id="clip_122">
<path d="M0 0H97V116H0Z"/>
</clipPath>
<clipPath id="clip_123">
<path d="M0 0H97V116H0Z"/>
</clipPath>
<clipPath id="clip_124">
<path d="M0 0H97V116H0Z"/>
</clipPath>
<clipPath id="clip_125">
<path d="M0 0H97V116H0Z"/>
</clipPath>
<clipPath id="clip_126">
<path d="M0 0H97V116H0Z"/>
</clipPath>
<clipPath id="clip_127">
<path d="M0 0H97V116H0Z"/>
</clipPath>
<clipPath id="clip_128">
<path d="M0 0H97V116H0Z"/>
</clipPath>
<clipPath id="clip_129">
<path d="M0 0H97V116H0Z"/>
</clipPath>
<clipPath id="clip_130">
<path d="M0 0H97V116H0Z"/>
</clipPath>
<clipPath id="clip_131">
<path d="M0 0H97V116H0Z"/>
</clipPath>
<clipPath id="clip_132">
<path d="M0 0H97V116H0Z"/>
</clipPath>
<clipPath id="clip_133">
<path d="M0 0H97V116H0Z"/>
</clipPath>
<clipPath id="clip_134">
<path d="M0 0H97V116H0Z"/>
</clipPath>
<clipPath id="clip_135">
<path d="M0 0H97V116H0Z"/>
</clipPath>
<clipPath id="clip_136">
<path d="M0 0H97V116H0Z"/>
</clipPath>
<clipPath id="clip_137">
<path d="M0 0H97V116H0Z"/>
</clipPath>
<clipPath id="clip_138">
<path d="M0 0H97V116H0Z"/>
</clipPath>
<clipPath id="clip_139">
<path d="M0 0H97V116H0Z"/>
</clipPath>
<clipPath id="clip_140">
<path d="M0 0H97V116H0Z"/>
</clipPath>
<clipPath id="clip_141">
<path d="M0 0H97V116H0Z"/>
</clipPath>
<clipPath id="clip_142">
<path d="M0 0H97V116H0Z"/>
</clipPath>
<clipPath id="clip_143">
<path d="M0 0H97V116H0Z"/>
</clipPath>
<clipPath id="clip_144">
<path d="M0 0H97V116H0Z"/>
</clipPath>
<clipPath id="clip_145">
<path d="M0 0H97V116H0Z"/>
</clipPath>
<clipPath id="clip_146">
<path d="M0 0H97V116H0Z"/>
</clipPath>
<clipPath id="clip_147">
<path d="M0 0H97V116H0Z"/>
</clipPath>
<clipPath id="clip_148">
<path d="M0 0H97V116H0Z"/>
</clipPath>
<clipPath id="clip_149">
<path d="M0 0H97V116H0Z"/>
</clipPath>
<clipPath id="clip_150">
<path d="M0 0H97V116H0Z"/>
</clipPath>
<clipPath id="clip_151">
<path d="M0 0H97V116H0Z"/>
</clipPath>
<clipPath id="clip_152">
<path d="M0 0H97V116H0Z"/>
</clipPath>
<clipPath id="clip_153">
<path d="M0 0H97V116H0Z"/>
</clipPath>
<clipPath id="clip_154">
<path d="M0 0H97V116H0Z"/>
</clipPath>
<clipPath id="clip_155">
<path d="M0 0H97V116H0Z"/>
</clipPath>
<clipPath id="clip_156">
<path d="M0 0H97V116H0Z"/>
</clipPath>
<clipPath id="clip_157">
<path d="M0 0H97V116H0Z"/>
</clipPath>
<clipPath id="clip_158">
<path d="M0 0H97V116H0Z"/>
</clipPath>
<clipPath id="clip_159">
<path d="M0 0H97V116H0Z"/>
</clipPath>
<clipPath id="clip_160">
<path d="M0 0H97V116H0Z"/>
</clipPath>
<clipPath id="clip_161">
<path d="M0 0H97V116H0Z"/>
</clipPath>
<clipPath id="clip_162">
<path d="M0 0H97V116H0Z"/>
</clipPath>
<clipPath id="clip_163">
<path d="M0 0H97V116H0Z"/>
</clipPath>
<clipPath id="clip_164">
<path d="M0 0H97V116H0Z"/>
</clipPath>
<clipPath id="clip_165">
<path d="M0 0H97V116H0Z"/>
</clipPath>
</defs>
<g>
<path d="M0 0H97V116H0Z" fill="#ffffff"/>
<g clip-path="url(#clip_0)">
<path d="M72.332 106.25 72 76.668 72.578 76.66 72.91 106.246ZM70.371 77.07 72.25 73.203 74.215 77.027ZM70.371 77.07" fill="#bfbfbf"/>
</g>
<g clip-path="url(#clip_1)">
<path d="M20.359 106.617 20.168 76.938 20.746 76.934 20.934 106.613ZM18.535 77.332 20.434 73.477 22.379 77.309ZM18.535 77.332" fill="#bfbfbf"/>
</g>
<g clip-path="url(#clip_2)">
<path d="M11.336 113.344H10.668V108.633H11.336ZM16.742 113.344H16.109V111.34C16.109 111.121 16.062 110.953 15.969 110.836 15.875 110.711 15.75 110.648 15.594 110.648 15.375 110.648 15.188 110.762 15.043 110.988 14.895 111.207 14.82 111.484 14.82 111.82V113.344H14.188V111.34C14.188 111.176 14.152 111.02 14.082 110.871 14.012 110.723 13.875 110.648 13.672 110.648 13.441 110.648 13.254 110.762 13.109 110.988 12.969 111.207 12.898 111.496 12.898 111.855V113.344H12.254V110.133H12.852L12.898 110.613C13.016 110.441 13.137 110.305 13.273 110.203 13.406 110.102 13.602 110.051 13.859 110.051 14.305 110.051 14.602 110.273 14.762 110.719 14.832 110.562 14.918 110.438 15.02 110.344 15.129 110.25 15.242 110.18 15.359 110.133 15.48 110.078 15.617 110.051 15.758 110.051 16.055 110.051 16.289 110.152 16.473 110.355 16.652 110.559 16.742 110.828 16.742 111.164ZM20.578 113.309C20.391 113.355 20.23 113.379 20.109 113.379 19.715 113.379 19.516 113.195 19.512 112.828H19.5C19.395 112.992 19.27 113.133 19.125 113.25 18.973 113.367 18.773 113.426 18.516 113.426 18.332 113.426 18.152 113.383 17.977 113.297 17.793 113.211 17.648 113.09 17.543 112.934 17.43 112.77 17.379 112.586 17.379 112.383 17.379 112.18 17.438 112.008 17.555 111.867 17.672 111.727 17.824 111.617 18.023 111.539 18.215 111.461 18.422 111.406 18.645 111.375 18.859 111.336 19.148 111.297 19.512 111.258 19.5 111.109 19.453 110.988 19.371 110.895 19.281 110.793 19.184 110.723 19.066 110.684 18.949 110.645 18.832 110.625 18.727 110.625 18.574 110.625 18.434 110.648 18.305 110.695 18.168 110.742 18.051 110.801 17.953 110.871 17.848 110.934 17.742 111.012 17.637 111.105V110.426C18.062 110.176 18.469 110.051 18.844 110.051 19.09 110.051 19.312 110.102 19.512 110.203 19.711 110.305 19.867 110.453 19.98 110.648 20.086 110.836 20.145 111.039 20.145 111.258V112.582C20.145 112.746 20.215 112.828 20.355 112.828 20.426 112.828 20.496 112.812 20.578 112.781ZM19.512 111.75 19.195 111.797C18.738 111.859 18.434 111.934 18.281 112.02 18.129 112.098 18.059 112.215 18.059 112.371 18.059 112.512 18.117 112.633 18.234 112.734 18.352 112.828 18.484 112.875 18.645 112.875 18.812 112.875 18.996 112.801 19.184 112.652 19.375 112.504 19.488 112.203 19.512 111.75ZM23.988 112.957C23.988 113.379 23.945 113.699 23.871 113.918 23.789 114.133 23.664 114.32 23.496 114.48 23.32 114.645 23.137 114.754 22.945 114.82 22.746 114.891 22.547 114.926 22.336 114.926 21.914 114.926 21.492 114.785 21.082 114.504V113.719C21.258 113.887 21.445 114.035 21.645 114.152 21.844 114.27 22.078 114.328 22.348 114.328 22.539 114.328 22.723 114.273 22.887 114.164 23.051 114.051 23.168 113.91 23.238 113.742 23.309 113.57 23.344 113.25 23.344 112.781L23.332 112.77C23.031 113.16 22.68 113.355 22.277 113.355 21.883 113.355 21.551 113.195 21.281 112.875 21.004 112.555 20.871 112.172 20.871 111.727 20.871 111.422 20.93 111.145 21.059 110.895 21.188 110.637 21.367 110.434 21.598 110.285 21.82 110.129 22.078 110.051 22.359 110.051 22.523 110.051 22.676 110.082 22.816 110.145 22.961 110.199 23.137 110.316 23.344 110.496L23.484 110.133H23.988ZM23.344 111.633V111.059C23.227 110.941 23.098 110.844 22.969 110.766 22.84 110.688 22.688 110.648 22.5 110.648 22.223 110.648 21.996 110.746 21.82 110.941 21.645 111.137 21.562 111.391 21.562 111.703 21.562 112.008 21.637 112.262 21.797 112.465 21.961 112.66 22.172 112.758 22.43 112.758 22.691 112.758 22.91 112.652 23.086 112.441 23.254 112.223 23.344 111.953 23.344 111.633ZM27.668 111.727H25.277C25.293 111.992 25.359 112.207 25.477 112.371 25.602 112.527 25.742 112.641 25.898 112.711 26.062 112.773 26.215 112.805 26.355 112.805 26.762 112.805 27.164 112.605 27.562 112.207V112.98C27.375 113.098 27.18 113.203 26.977 113.297 26.781 113.383 26.539 113.426 26.25 113.426 25.914 113.426 25.621 113.348 25.371 113.191 25.121 113.027 24.93 112.816 24.797 112.559 24.664 112.301 24.598 112.027 24.598 111.738 24.598 111.41 24.672 111.121 24.82 110.871 24.969 110.613 25.168 110.414 25.418 110.273 25.668 110.125 25.934 110.051 26.215 110.051 26.441 110.051 26.652 110.098 26.848 110.191 27.043 110.285 27.203 110.41 27.328 110.566 27.453 110.715 27.539 110.883 27.586 111.07 27.641 111.25 27.668 111.469 27.668 111.727ZM26.93 111.211C26.898 111.008 26.812 110.852 26.672 110.742 26.531 110.633 26.379 110.578 26.215 110.578 25.832 110.578 25.547 110.789 25.359 111.211ZM30.637 112.359C30.637 112.547 30.578 112.723 30.461 112.887 30.344 113.051 30.176 113.184 29.957 113.285 29.746 113.379 29.5 113.426 29.219 113.426 29.031 113.426 28.855 113.406 28.691 113.367 28.535 113.328 28.406 113.285 28.305 113.238 28.211 113.191 28.109 113.137 28 113.074V112.371C28.383 112.691 28.797 112.852 29.242 112.852 29.43 112.852 29.594 112.816 29.734 112.746 29.883 112.668 29.957 112.559 29.957 112.418 29.957 112.309 29.902 112.219 29.793 112.148 29.684 112.078 29.484 112.012 29.195 111.949 28.891 111.879 28.676 111.816 28.551 111.762 28.434 111.707 28.328 111.641 28.234 111.562 28.156 111.469 28.098 111.387 28.059 111.316 28.02 111.246 28 111.148 28 111.023 28 110.734 28.121 110.5 28.363 110.32 28.605 110.141 28.914 110.051 29.289 110.051 29.68 110.051 30.059 110.148 30.426 110.344V111.012C30.184 110.848 29.969 110.742 29.781 110.695 29.594 110.648 29.434 110.625 29.301 110.625 29.129 110.625 28.98 110.66 28.855 110.73 28.738 110.793 28.68 110.875 28.68 110.977 28.68 111.078 28.738 111.16 28.855 111.223 28.973 111.285 29.145 111.34 29.371 111.387 29.824 111.488 30.148 111.613 30.344 111.762 30.539 111.91 30.637 112.109 30.637 112.359ZM30.637 112.359"/>
</g>
<g clip-path="url(#clip_3)">
<path d="M50.488 85.297C50.488 83.469 51.973 81.98 53.805 81.98H88.371C90.203 81.98 91.691 83.469 91.691 85.297V98.566C91.691 100.398 90.203 101.883 88.371 101.883H53.805C51.973 101.883 50.488 100.398 50.488 98.566ZM50.488 85.297" fill="#b4c7e7" fill-rule="evenodd"/>
</g>
<g clip-path="url(#clip_4)">
<path d="M68.488 86.102H67.117V90.191H66.449V86.102H65.055V85.48H68.488ZM71.484 88.574H69.094C69.109 88.84 69.176 89.055 69.293 89.219 69.418 89.375 69.559 89.488 69.715 89.559 69.879 89.621 70.031 89.652 70.172 89.652 70.578 89.652 70.98 89.453 71.379 89.055V89.828C71.191 89.945 70.996 90.051 70.793 90.145 70.598 90.227 70.355 90.273 70.066 90.273 69.73 90.273 69.438 90.191 69.188 90.039 68.938 89.875 68.746 89.664 68.613 89.406 68.48 89.148 68.414 88.875 68.414 88.586 68.414 88.258 68.488 87.969 68.637 87.719 68.785 87.461 68.984 87.262 69.234 87.121 69.484 86.973 69.75 86.898 70.031 86.898 70.258 86.898 70.469 86.945 70.664 87.039 70.859 87.133 71.02 87.258 71.145 87.414 71.27 87.562 71.355 87.73 71.402 87.918 71.457 88.098 71.484 88.316 71.484 88.574ZM70.746 88.059C70.715 87.855 70.629 87.699 70.488 87.59 70.348 87.48 70.195 87.426 70.031 87.426 69.648 87.426 69.363 87.637 69.176 88.059ZM74.863 90.191H74.055L73.305 88.891 72.52 90.191H71.77L72.918 88.422 71.98 86.98H72.789L73.34 87.977 73.867 86.98H74.641L73.715 88.422ZM77.012 90.156C76.801 90.23 76.594 90.273 76.391 90.273 75.805 90.273 75.512 90 75.512 89.453V87.52H74.973V86.98H75.512L75.57 86.02H76.145V86.98H77.012V87.52H76.145V89.254C76.145 89.551 76.297 89.699 76.602 89.699 76.734 89.699 76.871 89.66 77.012 89.582ZM77.012 90.156" fill="#0d0d0d"/>
</g>
<g clip-path="url(#clip_5)">
<path d="M62.574 96.965H60.184C60.199 97.234 60.266 97.445 60.383 97.609 60.504 97.77 60.645 97.879 60.805 97.949 60.969 98.016 61.121 98.043 61.262 98.043 61.664 98.043 62.07 97.844 62.469 97.445V98.219C62.281 98.336 62.086 98.441 61.883 98.535 61.688 98.621 61.441 98.664 61.156 98.664 60.82 98.664 60.527 98.586 60.277 98.43 60.023 98.266 59.836 98.055 59.703 97.797 59.566 97.539 59.504 97.27 59.504 96.977 59.504 96.648 59.578 96.363 59.727 96.109 59.871 95.852 60.07 95.652 60.324 95.512 60.574 95.367 60.84 95.289 61.121 95.289 61.348 95.289 61.559 95.336 61.754 95.43 61.945 95.523 62.109 95.652 62.234 95.805 62.355 95.957 62.445 96.121 62.492 96.309 62.543 96.492 62.574 96.707 62.574 96.965ZM61.836 96.449C61.805 96.25 61.719 96.094 61.578 95.98 61.438 95.875 61.285 95.816 61.121 95.816 60.738 95.816 60.453 96.027 60.266 96.449ZM65.93 98.582H65.297V96.602C65.297 96.402 65.25 96.234 65.156 96.098 65.062 95.957 64.91 95.887 64.699 95.887 64.512 95.887 64.348 95.945 64.207 96.062 64.066 96.176 63.961 96.32 63.891 96.496 63.824 96.68 63.797 96.859 63.797 97.047V98.582H63.152V95.371H63.738L63.785 95.91H63.797C63.867 95.793 63.938 95.699 64.008 95.617 64.078 95.535 64.176 95.461 64.312 95.395 64.453 95.324 64.621 95.289 64.828 95.289 65.18 95.289 65.449 95.402 65.637 95.617 65.828 95.84 65.93 96.094 65.93 96.379ZM69.227 98.348C69.062 98.438 68.898 98.512 68.734 98.57 68.57 98.633 68.387 98.664 68.184 98.664 67.887 98.664 67.617 98.59 67.375 98.441 67.133 98.297 66.941 98.09 66.801 97.832 66.668 97.574 66.602 97.301 66.602 97 66.602 96.707 66.672 96.426 66.812 96.156 66.953 95.895 67.148 95.684 67.398 95.523 67.656 95.371 67.938 95.289 68.242 95.289 68.438 95.289 68.609 95.32 68.758 95.371 68.906 95.418 69.062 95.488 69.227 95.57V96.262C68.93 96.016 68.625 95.887 68.312 95.887 68 95.887 67.75 96 67.562 96.215 67.383 96.438 67.293 96.691 67.293 96.977 67.293 97.277 67.387 97.535 67.574 97.75 67.77 97.961 68.004 98.066 68.277 98.066 68.395 98.066 68.531 98.043 68.688 97.996 68.852 97.949 69.031 97.844 69.227 97.668ZM72.961 96.977C72.961 97.281 72.883 97.57 72.738 97.832 72.586 98.09 72.387 98.297 72.129 98.441 71.871 98.59 71.594 98.664 71.309 98.664 70.992 98.664 70.711 98.59 70.453 98.441 70.195 98.297 69.988 98.09 69.844 97.832 69.703 97.574 69.633 97.293 69.633 96.977 69.633 96.66 69.703 96.367 69.855 96.109 70 95.852 70.199 95.652 70.453 95.512 70.711 95.367 70.992 95.289 71.297 95.289 71.602 95.289 71.875 95.367 72.129 95.512 72.387 95.652 72.586 95.859 72.738 96.121 72.883 96.379 72.961 96.668 72.961 96.977ZM72.281 96.977C72.281 96.785 72.234 96.602 72.152 96.426 72.07 96.258 71.953 96.121 71.801 96.016 71.648 95.918 71.484 95.863 71.297 95.863 71.02 95.863 70.785 95.977 70.594 96.191 70.406 96.402 70.312 96.668 70.312 96.977 70.312 97.293 70.406 97.559 70.594 97.773 70.785 97.984 71.016 98.09 71.273 98.09 71.555 98.09 71.789 97.984 71.988 97.773 72.18 97.559 72.281 97.293 72.281 96.977ZM76.555 98.582H75.969L75.922 98.043H75.91C75.645 98.461 75.293 98.664 74.867 98.664 74.602 98.664 74.355 98.594 74.141 98.453 73.93 98.309 73.758 98.109 73.637 97.855 73.512 97.598 73.449 97.316 73.449 97.012 73.449 96.684 73.52 96.391 73.66 96.133 73.801 95.871 73.98 95.664 74.211 95.512 74.445 95.367 74.695 95.289 74.961 95.289 75.152 95.289 75.328 95.324 75.477 95.395 75.633 95.465 75.781 95.559 75.922 95.664V93.871H76.555ZM75.922 96.918V96.309C75.621 96.027 75.336 95.887 75.055 95.887 74.789 95.887 74.566 95.992 74.398 96.191 74.227 96.398 74.141 96.66 74.141 96.977 74.141 97.293 74.223 97.551 74.387 97.762 74.551 97.969 74.754 98.066 75.008 98.066 75.148 98.066 75.289 98.031 75.43 97.949 75.57 97.867 75.688 97.738 75.781 97.562 75.875 97.395 75.922 97.176 75.922 96.918ZM80.398 96.965H78.008C78.023 97.234 78.09 97.445 78.207 97.609 78.328 97.77 78.469 97.879 78.629 97.949 78.793 98.016 78.945 98.043 79.086 98.043 79.488 98.043 79.895 97.844 80.293 97.445V98.219C80.105 98.336 79.91 98.441 79.707 98.535 79.512 98.621 79.266 98.664 78.98 98.664 78.645 98.664 78.352 98.586 78.102 98.43 77.848 98.266 77.66 98.055 77.527 97.797 77.391 97.539 77.328 97.27 77.328 96.977 77.328 96.648 77.402 96.363 77.551 96.109 77.695 95.852 77.895 95.652 78.148 95.512 78.398 95.367 78.664 95.289 78.945 95.289 79.172 95.289 79.383 95.336 79.578 95.43 79.77 95.523 79.934 95.652 80.059 95.805 80.18 95.957 80.27 96.121 80.316 96.309 80.367 96.492 80.398 96.707 80.398 96.965ZM79.66 96.449C79.629 96.25 79.543 96.094 79.402 95.98 79.262 95.875 79.109 95.816 78.945 95.816 78.562 95.816 78.277 96.027 78.09 96.449ZM82.898 96.004C82.738 95.945 82.621 95.91 82.547 95.91 82.301 95.91 82.09 96.027 81.914 96.262 81.738 96.492 81.656 96.773 81.656 97.105V98.582H81.023V95.371H81.598L81.656 95.969H81.668C81.812 95.535 82.113 95.312 82.559 95.312 82.676 95.312 82.785 95.332 82.898 95.359ZM82.898 96.004" fill="#0d0d0d"/>
</g>
<g clip-path="url(#clip_6)">
<path d="M61.543 113.527H58.531V108.816H59.199V112.906H61.543ZM64.992 113.492C64.805 113.539 64.645 113.562 64.523 113.562 64.129 113.562 63.93 113.383 63.926 113.012H63.914C63.809 113.176 63.684 113.316 63.539 113.434 63.387 113.551 63.188 113.609 62.93 113.609 62.746 113.609 62.566 113.566 62.391 113.48 62.207 113.395 62.062 113.277 61.957 113.117 61.844 112.953 61.793 112.773 61.793 112.566 61.793 112.363 61.852 112.191 61.969 112.051 62.086 111.91 62.238 111.801 62.438 111.723 62.629 111.648 62.836 111.59 63.059 111.559 63.273 111.52 63.562 111.484 63.926 111.441 63.914 111.297 63.867 111.172 63.785 111.078 63.695 110.98 63.598 110.91 63.48 110.867 63.363 110.828 63.246 110.809 63.141 110.809 62.988 110.809 62.848 110.832 62.719 110.879 62.582 110.926 62.465 110.984 62.367 111.055 62.262 111.121 62.156 111.195 62.051 111.289V110.609C62.477 110.359 62.883 110.234 63.258 110.234 63.504 110.234 63.727 110.289 63.926 110.387 64.125 110.488 64.281 110.641 64.395 110.832 64.5 111.02 64.559 111.227 64.559 111.441V112.766C64.559 112.93 64.629 113.012 64.77 113.012 64.84 113.012 64.91 112.996 64.992 112.965ZM63.926 111.934 63.609 111.98C63.152 112.047 62.848 112.117 62.695 112.203 62.543 112.281 62.473 112.398 62.473 112.555 62.473 112.695 62.531 112.82 62.648 112.918 62.766 113.012 62.898 113.059 63.059 113.059 63.227 113.059 63.41 112.984 63.598 112.836 63.789 112.691 63.902 112.387 63.926 111.934ZM68.227 113.527H67.594V111.547C67.594 111.344 67.547 111.18 67.453 111.043 67.359 110.902 67.207 110.832 66.996 110.832 66.809 110.832 66.645 110.891 66.504 111.008 66.363 111.121 66.258 111.262 66.188 111.441 66.121 111.625 66.094 111.805 66.094 111.992V113.527H65.449V110.316H66.035L66.082 110.855H66.094C66.164 110.738 66.234 110.641 66.305 110.562 66.375 110.477 66.473 110.406 66.609 110.34 66.75 110.27 66.918 110.234 67.125 110.234 67.477 110.234 67.746 110.348 67.934 110.562 68.125 110.781 68.227 111.039 68.227 111.324ZM72.051 113.141C72.051 113.562 72.012 113.883 71.934 114.102 71.855 114.32 71.73 114.508 71.559 114.664 71.387 114.828 71.203 114.941 71.008 115.004 70.812 115.074 70.609 115.109 70.398 115.109 69.977 115.109 69.559 114.969 69.145 114.688V113.902C69.324 114.074 69.512 114.219 69.707 114.336 69.91 114.453 70.145 114.512 70.41 114.512 70.605 114.512 70.785 114.457 70.949 114.348 71.113 114.238 71.23 114.098 71.301 113.926 71.371 113.754 71.406 113.434 71.406 112.965L71.395 112.953C71.098 113.348 70.746 113.539 70.34 113.539 69.949 113.539 69.617 113.383 69.344 113.059 69.07 112.738 68.934 112.355 68.934 111.91 68.934 111.605 68.996 111.332 69.121 111.078 69.254 110.82 69.434 110.617 69.66 110.469 69.887 110.312 70.141 110.234 70.422 110.234 70.586 110.234 70.738 110.266 70.879 110.328 71.027 110.383 71.203 110.5 71.406 110.68L71.547 110.316H72.051ZM71.406 111.816V111.242C71.289 111.125 71.164 111.027 71.031 110.949 70.906 110.875 70.75 110.832 70.562 110.832 70.289 110.832 70.062 110.934 69.883 111.125 69.711 111.32 69.625 111.578 69.625 111.887 69.625 112.191 69.703 112.445 69.859 112.648 70.023 112.844 70.234 112.941 70.492 112.941 70.758 112.941 70.977 112.836 71.148 112.625 71.32 112.41 71.406 112.141 71.406 111.816ZM75.773 113.527H75.188L75.141 112.988H75.129C74.883 113.406 74.543 113.609 74.098 113.609 73.75 113.609 73.48 113.504 73.289 113.293 73.09 113.078 72.996 112.785 72.996 112.426V110.316H73.629V112.25C73.629 112.461 73.676 112.645 73.77 112.789 73.863 112.938 74.02 113.012 74.25 113.012 74.508 113.012 74.719 112.902 74.883 112.672 75.051 112.445 75.141 112.164 75.141 111.828V110.316H75.773ZM79.598 113.492C79.41 113.539 79.254 113.562 79.129 113.562 78.738 113.562 78.539 113.383 78.531 113.012H78.52C78.418 113.176 78.293 113.316 78.145 113.434 77.996 113.551 77.793 113.609 77.535 113.609 77.355 113.609 77.176 113.566 76.996 113.48 76.816 113.395 76.672 113.277 76.562 113.117 76.453 112.953 76.398 112.773 76.398 112.566 76.398 112.363 76.457 112.191 76.574 112.051 76.691 111.91 76.848 111.801 77.043 111.723 77.238 111.648 77.445 111.59 77.664 111.559 77.883 111.52 78.172 111.484 78.531 111.441 78.523 111.297 78.477 111.172 78.391 111.078 78.305 110.98 78.203 110.91 78.086 110.867 77.969 110.828 77.855 110.809 77.746 110.809 77.598 110.809 77.457 110.832 77.324 110.879 77.191 110.926 77.074 110.984 76.973 111.055 76.871 111.121 76.766 111.195 76.656 111.289V110.609C77.086 110.359 77.488 110.234 77.863 110.234 78.113 110.234 78.336 110.289 78.531 110.387 78.734 110.488 78.891 110.641 79 110.832 79.109 111.02 79.164 111.227 79.164 111.441V112.766C79.164 112.93 79.234 113.012 79.375 113.012 79.445 113.012 79.52 112.996 79.598 112.965ZM78.531 111.934 78.215 111.98C77.762 112.047 77.457 112.117 77.301 112.203 77.152 112.281 77.078 112.398 77.078 112.555 77.078 112.695 77.137 112.82 77.254 112.918 77.371 113.012 77.508 113.059 77.664 113.059 77.836 113.059 78.016 112.984 78.203 112.836 78.398 112.691 78.508 112.387 78.531 111.934ZM83.008 113.141C83.008 113.562 82.969 113.883 82.891 114.102 82.812 114.32 82.688 114.508 82.516 114.664 82.344 114.828 82.16 114.941 81.965 115.004 81.77 115.074 81.566 115.109 81.355 115.109 80.934 115.109 80.516 114.969 80.102 114.688V113.902C80.281 114.074 80.469 114.219 80.664 114.336 80.867 114.453 81.102 114.512 81.367 114.512 81.562 114.512 81.742 114.457 81.906 114.348 82.07 114.238 82.188 114.098 82.258 113.926 82.328 113.754 82.363 113.434 82.363 112.965L82.352 112.953C82.055 113.348 81.703 113.539 81.297 113.539 80.906 113.539 80.574 113.383 80.301 113.059 80.027 112.738 79.891 112.355 79.891 111.91 79.891 111.605 79.953 111.332 80.078 111.078 80.211 110.82 80.391 110.617 80.617 110.469 80.844 110.312 81.098 110.234 81.379 110.234 81.543 110.234 81.695 110.266 81.836 110.328 81.984 110.383 82.16 110.5 82.363 110.68L82.504 110.316H83.008ZM82.363 111.816V111.242C82.246 111.125 82.121 111.027 81.988 110.949 81.863 110.875 81.707 110.832 81.52 110.832 81.246 110.832 81.02 110.934 80.84 111.125 80.668 111.32 80.582 111.578 80.582 111.887 80.582 112.191 80.66 112.445 80.816 112.648 80.98 112.844 81.191 112.941 81.449 112.941 81.715 112.941 81.934 112.836 82.105 112.625 82.277 112.41 82.363 112.141 82.363 111.816ZM86.695 111.91H84.305C84.316 112.176 84.387 112.391 84.504 112.555 84.625 112.715 84.766 112.824 84.926 112.895 85.09 112.961 85.242 112.988 85.383 112.988 85.785 112.988 86.191 112.789 86.59 112.391V113.164C86.402 113.281 86.203 113.387 86.004 113.48 85.805 113.566 85.562 113.609 85.277 113.609 84.938 113.609 84.645 113.531 84.398 113.375 84.145 113.211 83.953 113 83.824 112.742 83.688 112.484 83.625 112.211 83.625 111.922 83.625 111.594 83.695 111.309 83.848 111.055 83.992 110.797 84.191 110.598 84.445 110.457 84.691 110.312 84.961 110.234 85.242 110.234 85.465 110.234 85.676 110.281 85.875 110.375 86.066 110.469 86.227 110.594 86.355 110.75 86.477 110.898 86.566 111.066 86.613 111.254 86.664 111.438 86.695 111.652 86.695 111.91ZM85.957 111.395C85.922 111.191 85.84 111.039 85.699 110.926 85.559 110.816 85.406 110.762 85.242 110.762 84.855 110.762 84.574 110.973 84.387 111.395ZM85.957 111.395"/>
</g>
<g clip-path="url(#clip_7)">
<path d="M24.051 64 36.598 57.207 36.32 56.703 23.777 63.492ZM37.035 58.828 39.5 55.309 35.207 55.449ZM37.035 58.828" fill="#bfbfbf"/>
</g>
<g clip-path="url(#clip_8)">
<path d="M71.516 64 58.652 57.184 58.922 56.672 71.785 63.492ZM58.227 58.805 55.73 55.309 60.023 55.41ZM58.227 58.805" fill="#bfbfbf"/>
</g>
<g clip-path="url(#clip_9)">
<use data-text="L" xlink:href="#font_10_1" transform="matrix(6.91866,0,0,-6.91866,49.580163,4.952517)"/>
<use data-text="a" xlink:href="#font_10_2" transform="matrix(6.91866,0,0,-6.91866,53.426939,4.952517)"/>
<use data-text="b" xlink:href="#font_10_3" transform="matrix(6.91866,0,0,-6.91866,57.273714,4.952517)"/>
<use data-text="e" xlink:href="#font_10_4" transform="matrix(6.91866,0,0,-6.91866,61.120489,4.952517)"/>
<use data-text="l" xlink:href="#font_10_5" transform="matrix(6.91866,0,0,-6.91866,64.96726,4.952517)"/>
</g>
<g clip-path="url(#clip_11)">
<use data-text="s" xlink:href="#font_10_6" transform="matrix(6.91866,0,0,-6.91866,66.49626,4.952517)"/>
</g>
<g clip-path="url(#clip_12)">
<g clip-path="url(#clip_13)">
<path d="M43.602 49.719C43.602 49.543 43.613 49.543 43.836 49.52 44.023 49.496 44.035 49.496 44.258 49.496H44.457V49.121C44.152 49.145 43.707 49.145 43.402 49.145 43.074 49.145 42.664 49.145 42.336 49.121V49.496H42.535C42.676 49.496 42.805 49.496 42.945 49.52 43.18 49.543 43.191 49.543 43.191 49.719V52.684C43.191 53.855 42.324 54.242 41.469 54.242 40.098 54.242 40.074 53.211 40.074 52.766V49.496H40.93V49.121C40.625 49.145 39.852 49.145 39.512 49.145 39.184 49.145 38.41 49.145 38.105 49.121V49.496H38.961V52.707C38.961 53.75 39.805 54.605 41.434 54.605 42.934 54.605 43.602 53.691 43.602 52.719ZM43.602 49.719"/>
</g>
<g clip-path="url(#clip_14)">
<path d="M47.355 47.723H49.043C49.125 47.723 49.266 47.723 49.266 47.594 49.266 47.453 49.137 47.453 49.043 47.453H45.41C45.328 47.453 45.188 47.453 45.188 47.582 45.188 47.723 45.316 47.723 45.41 47.723H47.086V51.062C47.086 51.145 47.086 51.273 47.227 51.273 47.355 51.273 47.355 51.145 47.355 51.062ZM47.355 47.723"/>
</g>
<g clip-path="url(#clip_15)">
<path d="M55.902 49.66C55.949 49.566 55.984 49.496 56.559 49.496H56.711V49.121C56.406 49.133 56.031 49.145 55.82 49.145 55.504 49.145 55.094 49.145 54.789 49.121V49.496C54.859 49.496 55.48 49.496 55.48 49.59 55.48 49.613 55.457 49.66 55.445 49.684L53.863 53.258 52.176 49.496H52.926V49.121C52.621 49.145 51.871 49.145 51.531 49.145 51.215 49.145 50.559 49.145 50.277 49.121V49.496H51.004L53.184 54.383C53.242 54.523 53.277 54.582 53.5 54.582 53.617 54.582 53.723 54.582 53.816 54.395ZM55.902 49.66"/>
</g>
</g>
<g clip-path="url(#clip_16)">
<g clip-path="url(#clip_17)">
<path d="M6.633 67.035C6.633 66.871 6.645 66.859 6.855 66.836 7.043 66.812 7.066 66.812 7.277 66.812H7.477V66.449C7.184 66.473 6.738 66.473 6.434 66.473 6.105 66.473 5.695 66.473 5.379 66.449V66.812H5.578C5.719 66.812 5.848 66.824 5.988 66.836 6.211 66.859 6.223 66.871 6.223 67.035V69.977C6.223 71.125 5.367 71.512 4.523 71.512 3.164 71.512 3.141 70.492 3.141 70.059V66.812H3.984V66.449C3.691 66.473 2.93 66.473 2.59 66.473 2.25 66.473 1.488 66.473 1.195 66.449V66.812H2.039V69.988C2.039 71.031 2.883 71.875 4.488 71.875 5.977 71.875 6.633 70.973 6.633 70.012ZM6.633 67.035"/>
</g>
<g clip-path="url(#clip_18)">
<path d="M14.211 70C14.352 70 14.492 70 14.492 69.848 14.492 69.684 14.352 69.684 14.211 69.684H10.906C11 68.641 11.902 67.902 13.004 67.902H14.211C14.352 67.902 14.492 67.902 14.492 67.738 14.492 67.586 14.352 67.586 14.211 67.586H12.98C11.656 67.586 10.59 68.594 10.59 69.848 10.59 71.09 11.656 72.109 12.98 72.109H14.211C14.352 72.109 14.492 72.109 14.492 71.945 14.492 71.793 14.352 71.793 14.211 71.793H13.004C11.902 71.793 11 71.043 10.906 70ZM14.211 70"/>
</g>
<g clip-path="url(#clip_19)">
<path d="M19.387 69.344H19.668L20.84 71.148C20.922 71.277 21.109 71.582 21.191 71.699 21.238 71.793 21.262 71.793 21.449 71.793H22.527C22.668 71.793 22.773 71.793 22.773 71.652 22.773 71.594 22.738 71.535 22.668 71.523 22.375 71.453 21.988 70.949 21.801 70.691 21.754 70.621 21.355 70.105 20.84 69.262 21.531 69.133 22.199 68.84 22.199 67.914 22.199 66.824 21.062 66.449 20.137 66.449H17.688C17.547 66.449 17.43 66.449 17.43 66.59 17.43 66.73 17.57 66.73 17.641 66.73 18.074 66.73 18.121 66.777 18.121 67.176V71.078C18.121 71.465 18.074 71.523 17.641 71.523 17.57 71.523 17.43 71.523 17.43 71.652 17.43 71.793 17.547 71.793 17.688 71.793H19.82C19.961 71.793 20.078 71.793 20.078 71.652 20.078 71.523 19.949 71.523 19.867 71.523 19.422 71.523 19.387 71.453 19.387 71.078ZM20.898 68.969C21.109 68.676 21.133 68.266 21.133 67.914 21.133 67.551 21.086 67.129 20.84 66.812 21.156 66.883 21.93 67.129 21.93 67.914 21.93 68.418 21.695 68.816 20.898 68.969ZM19.387 67.152C19.387 66.988 19.387 66.73 19.867 66.73 20.535 66.73 20.863 67 20.863 67.914 20.863 68.922 20.617 69.074 19.387 69.074ZM18.332 71.523C18.391 71.383 18.391 71.16 18.391 71.09V67.152C18.391 67.082 18.391 66.871 18.332 66.73H19.223C19.117 66.848 19.117 67.012 19.117 67.129V71.09C19.117 71.172 19.117 71.383 19.176 71.523ZM19.984 69.344C20.043 69.344 20.078 69.332 20.137 69.332 20.254 69.332 20.43 69.32 20.547 69.297 20.664 69.484 21.496 70.879 22.152 71.523H21.391ZM19.984 69.344"/>
</g>
<g clip-path="url(#clip_20)">
<path d="M24.789 66.891H25.773C26.688 66.891 27.473 66.305 27.473 65.707 27.473 65.25 27.027 64.852 26.277 64.852H24.367C24.262 64.852 24.191 64.852 24.191 64.98 24.191 65.051 24.25 65.051 24.379 65.051 24.461 65.051 24.484 65.051 24.578 65.062 24.695 65.074 24.707 65.086 24.707 65.145 24.707 65.156 24.707 65.18 24.684 65.262L23.957 68.133C23.91 68.344 23.898 68.379 23.477 68.379 23.383 68.379 23.312 68.379 23.312 68.496 23.312 68.508 23.312 68.578 23.395 68.578 23.559 68.578 23.945 68.555 24.109 68.555 24.203 68.555 24.391 68.555 24.484 68.566 24.59 68.566 24.73 68.578 24.836 68.578 24.871 68.578 24.953 68.578 24.953 68.461 24.953 68.379 24.883 68.379 24.777 68.379 24.766 68.379 24.66 68.379 24.566 68.367 24.438 68.355 24.438 68.344 24.438 68.285 24.438 68.285 24.438 68.25 24.461 68.168ZM25.176 65.238C25.223 65.074 25.223 65.051 25.457 65.051H26.09C26.594 65.051 26.91 65.203 26.91 65.59 26.91 65.766 26.852 66.188 26.582 66.434 26.383 66.609 26.066 66.715 25.68 66.715H24.801ZM25.176 65.238"/>
</g>
<g clip-path="url(#clip_21)">
<path d="M31.539 66.023C31.609 65.965 31.621 65.93 31.621 65.895 31.621 65.801 31.551 65.754 31.492 65.754 31.434 65.754 31.422 65.777 31.352 65.836L30.156 67.02 28.961 65.836C28.902 65.777 28.891 65.754 28.832 65.754 28.762 65.754 28.703 65.812 28.703 65.895 28.703 65.941 28.715 65.953 28.785 66.023L29.969 67.207 28.785 68.402C28.703 68.473 28.703 68.496 28.703 68.531 28.703 68.613 28.762 68.672 28.832 68.672 28.891 68.672 28.902 68.66 28.961 68.59L30.156 67.406 31.398 68.648C31.434 68.66 31.457 68.672 31.492 68.672 31.551 68.672 31.621 68.625 31.621 68.531 31.621 68.496 31.609 68.484 31.598 68.461 31.586 68.438 30.531 67.383 30.355 67.219ZM31.539 66.023"/>
</g>
<g clip-path="url(#clip_22)">
<path d="M33.656 64.699C33.656 64.617 33.656 64.488 33.527 64.488 33.387 64.488 33.387 64.617 33.387 64.699V69.727C33.387 69.809 33.387 69.938 33.527 69.938 33.656 69.938 33.656 69.82 33.656 69.727ZM36.113 64.875C36.113 64.863 36.125 64.805 36.125 64.805 36.125 64.746 36.078 64.746 36.055 64.746 35.984 64.746 35.914 64.781 35.727 64.875 35.398 65.039 35.199 65.145 35.199 65.25 35.199 65.297 35.246 65.297 35.27 65.297 35.34 65.297 35.41 65.262 35.609 65.156 35.492 66.105 35.305 66.902 35.258 67.137 35.164 67.559 35.07 68.004 34.789 68.496 34.73 68.613 34.73 68.625 34.73 68.648 34.73 68.684 34.777 68.684 34.789 68.684 34.848 68.684 35.023 68.648 35.188 68.484 35.199 68.461 35.281 68.344 35.434 67.992 35.562 67.699 35.621 67.465 35.668 67.301 35.902 66.434 36.453 65.074 37.367 65.074 37.672 65.074 37.953 65.227 37.953 65.543 37.953 65.801 37.801 65.906 37.59 66.012 37.355 66.141 36.91 66.293 36.746 66.34 36.57 66.398 36.523 66.422 36.418 66.492 36.301 66.586 36.301 66.633 36.301 66.645 36.301 66.68 36.312 66.703 36.359 66.703 36.383 66.703 36.395 66.691 36.418 66.691 36.418 66.691 36.547 66.668 36.688 66.668 37.25 66.668 37.777 66.949 37.777 67.5 37.777 67.676 37.719 68.016 37.402 68.191 37.191 68.297 36.852 68.355 36.605 68.355 36.395 68.355 36.09 68.309 35.844 68.098 35.785 68.039 35.773 68.039 35.738 68.039 35.598 68.039 35.305 68.227 35.305 68.332 35.305 68.379 35.492 68.508 35.656 68.578 35.902 68.684 36.102 68.684 36.219 68.684 37.168 68.684 38.281 68.121 38.281 67.254 38.281 66.715 37.824 66.422 37.355 66.352 37.742 66.164 38.457 65.812 38.457 65.297 38.457 64.992 38.199 64.734 37.754 64.734 37.262 64.734 36.535 65.039 35.996 65.719ZM36.113 64.875"/>
</g>
<g clip-path="url(#clip_23)">
<path d="M39.75 64.699C39.75 64.617 39.75 64.488 39.621 64.488 39.48 64.488 39.48 64.617 39.48 64.699V69.727C39.48 69.809 39.48 69.938 39.621 69.938 39.75 69.938 39.75 69.82 39.75 69.727ZM39.75 64.699"/>
</g>
</g>
<g clip-path="url(#clip_24)">
<g clip-path="url(#clip_25)">
<path d="M57.328 66.848C57.375 66.73 57.41 66.66 58.031 66.66H58.184V66.262C57.867 66.262 57.457 66.285 57.234 66.285 56.895 66.285 56.449 66.285 56.121 66.262V66.66C56.191 66.66 56.859 66.66 56.859 66.754 56.859 66.789 56.836 66.836 56.824 66.859L55.113 70.727 53.309 66.66H54.105V66.262C53.777 66.285 52.969 66.285 52.594 66.285 52.266 66.285 51.551 66.285 51.258 66.262V66.66H52.043L54.387 71.934C54.445 72.086 54.48 72.156 54.727 72.156 54.855 72.156 54.973 72.156 55.066 71.945ZM57.328 66.848"/>
</g>
<g clip-path="url(#clip_26)">
<path d="M65.578 70.129C65.73 70.129 65.883 70.129 65.883 69.965 65.883 69.789 65.73 69.789 65.578 69.789H61.98C62.086 68.652 63.059 67.832 64.254 67.832H65.578C65.73 67.832 65.883 67.832 65.883 67.668 65.883 67.492 65.73 67.492 65.578 67.492H64.242C62.789 67.492 61.629 68.605 61.629 69.965 61.629 71.324 62.789 72.426 64.242 72.426H65.578C65.73 72.426 65.883 72.426 65.883 72.262 65.883 72.086 65.73 72.086 65.578 72.086H64.254C63.059 72.086 62.086 71.266 61.98 70.129ZM65.578 70.129"/>
</g>
<g clip-path="url(#clip_27)">
<path d="M71.227 69.414H71.531L72.809 71.395C72.891 71.523 73.102 71.852 73.195 71.98 73.254 72.086 73.277 72.086 73.477 72.086H74.648C74.801 72.086 74.93 72.086 74.93 71.934 74.93 71.863 74.871 71.805 74.801 71.793 74.484 71.723 74.062 71.16 73.863 70.891 73.805 70.809 73.383 70.246 72.809 69.32 73.57 69.191 74.297 68.863 74.297 67.855 74.297 66.672 73.043 66.262 72.047 66.262H69.375C69.223 66.262 69.094 66.262 69.094 66.414 69.094 66.566 69.246 66.566 69.316 66.566 69.809 66.566 69.844 66.625 69.844 67.047V71.301C69.844 71.734 69.809 71.793 69.316 71.793 69.246 71.793 69.094 71.793 69.094 71.934 69.094 72.086 69.223 72.086 69.375 72.086H71.707C71.859 72.086 71.988 72.086 71.988 71.934 71.988 71.793 71.848 71.793 71.754 71.793 71.262 71.793 71.227 71.723 71.227 71.301ZM72.867 69.004C73.113 68.688 73.137 68.242 73.137 67.867 73.137 67.457 73.078 67 72.809 66.66 73.16 66.73 74.004 67 74.004 67.855 74.004 68.406 73.746 68.84 72.867 69.004ZM71.227 67.023C71.227 66.848 71.227 66.566 71.754 66.566 72.48 66.566 72.832 66.859 72.832 67.867 72.832 68.957 72.574 69.121 71.227 69.121ZM70.078 71.793C70.148 71.641 70.148 71.395 70.148 71.324V67.035C70.148 66.941 70.148 66.719 70.078 66.566H71.039C70.934 66.695 70.934 66.871 70.934 67V71.324C70.934 71.406 70.934 71.641 71.004 71.793ZM71.883 69.414C71.941 69.414 71.977 69.402 72.047 69.402 72.176 69.402 72.363 69.379 72.492 69.367 72.609 69.566 73.535 71.078 74.238 71.793H73.418ZM71.883 69.414"/>
</g>
<g clip-path="url(#clip_28)">
<path d="M77.121 66.734H78.199C79.207 66.734 80.062 66.09 80.062 65.434 80.062 64.941 79.57 64.508 78.75 64.508H76.676C76.547 64.508 76.477 64.508 76.477 64.637 76.477 64.719 76.547 64.719 76.676 64.719 76.77 64.719 76.793 64.719 76.898 64.73 77.027 64.742 77.039 64.754 77.039 64.812 77.039 64.824 77.039 64.859 77.016 64.953L76.23 68.082C76.16 68.316 76.16 68.363 75.691 68.363 75.586 68.363 75.516 68.363 75.516 68.492 75.516 68.492 75.516 68.574 75.609 68.574 75.785 68.574 76.219 68.551 76.383 68.551 76.488 68.551 76.699 68.551 76.793 68.551 76.91 68.562 77.062 68.574 77.18 68.574 77.215 68.574 77.297 68.574 77.297 68.445 77.297 68.363 77.227 68.363 77.109 68.363 77.109 68.363 76.992 68.363 76.887 68.352 76.746 68.34 76.746 68.316 76.746 68.258 76.746 68.258 76.746 68.223 76.77 68.129ZM77.555 64.93C77.602 64.742 77.602 64.719 77.859 64.719H78.551C79.102 64.719 79.453 64.895 79.453 65.316 79.453 65.492 79.383 65.961 79.078 66.23 78.867 66.43 78.527 66.535 78.105 66.535H77.145ZM77.555 64.93"/>
</g>
<g clip-path="url(#clip_29)">
<path d="M84.508 65.785C84.566 65.715 84.59 65.68 84.59 65.645 84.59 65.539 84.508 65.492 84.449 65.492 84.379 65.492 84.367 65.504 84.297 65.574L82.996 66.875 81.684 65.574C81.625 65.516 81.602 65.492 81.543 65.492 81.461 65.492 81.391 65.551 81.391 65.645 81.391 65.691 81.414 65.715 81.484 65.785L82.785 67.074 81.484 68.375C81.402 68.457 81.391 68.492 81.391 68.527 81.391 68.609 81.461 68.68 81.543 68.68 81.602 68.68 81.613 68.656 81.684 68.598L82.996 67.285 84.344 68.645C84.379 68.668 84.402 68.68 84.449 68.68 84.508 68.68 84.59 68.621 84.59 68.527 84.59 68.48 84.578 68.469 84.555 68.445 84.543 68.422 83.395 67.273 83.195 67.086ZM84.508 65.785"/>
</g>
<g clip-path="url(#clip_30)">
<path d="M86.812 64.344C86.812 64.25 86.812 64.109 86.66 64.109 86.52 64.109 86.52 64.25 86.52 64.344V69.828C86.52 69.922 86.52 70.062 86.66 70.062 86.812 70.062 86.812 69.922 86.812 69.828ZM89.484 64.531C89.484 64.52 89.496 64.449 89.496 64.449 89.496 64.391 89.449 64.391 89.426 64.391 89.344 64.391 89.273 64.426 89.062 64.531 88.711 64.707 88.488 64.812 88.488 64.941 88.488 64.988 88.547 64.988 88.57 64.988 88.641 64.988 88.711 64.953 88.934 64.836 88.805 65.879 88.605 66.746 88.559 66.992 88.453 67.449 88.336 67.941 88.043 68.48 87.973 68.621 87.973 68.633 87.973 68.645 87.973 68.691 88.02 68.691 88.043 68.691 88.102 68.691 88.301 68.645 88.477 68.469 88.488 68.445 88.582 68.316 88.746 67.93 88.887 67.613 88.957 67.355 89.004 67.18 89.25 66.23 89.859 64.742 90.855 64.742 91.184 64.742 91.5 64.918 91.5 65.258 91.5 65.539 91.324 65.656 91.102 65.773 90.844 65.914 90.363 66.078 90.176 66.137 89.988 66.195 89.93 66.219 89.824 66.289 89.684 66.406 89.684 66.453 89.684 66.465 89.684 66.5 89.707 66.523 89.754 66.523 89.777 66.523 89.789 66.512 89.812 66.512 89.824 66.512 89.965 66.488 90.117 66.488 90.727 66.488 91.301 66.793 91.301 67.402 91.301 67.59 91.242 67.965 90.902 68.141 90.668 68.27 90.293 68.328 90.023 68.328 89.789 68.328 89.461 68.281 89.191 68.047 89.121 67.988 89.121 67.988 89.074 67.988 88.922 67.988 88.605 68.188 88.605 68.305 88.605 68.352 88.805 68.492 88.992 68.586 89.262 68.691 89.473 68.691 89.602 68.691 90.633 68.691 91.863 68.07 91.863 67.133 91.863 66.535 91.348 66.219 90.844 66.137 91.266 65.938 92.051 65.551 92.051 64.988 92.051 64.66 91.77 64.379 91.277 64.379 90.738 64.379 89.941 64.707 89.355 65.445ZM93.461 64.344C93.461 64.25 93.461 64.109 93.309 64.109 93.168 64.109 93.168 64.25 93.168 64.344V69.828C93.168 69.922 93.168 70.062 93.309 70.062 93.461 70.062 93.461 69.922 93.461 69.828ZM93.461 64.344"/>
</g>
</g>
<g clip-path="url(#clip_31)">
<path d="M0 86.445C0 84.613 1.484 83.129 3.316 83.129H37.883C39.715 83.129 41.199 84.613 41.199 86.445V99.711C41.199 101.543 39.715 103.031 37.883 103.031H3.316C1.484 103.031 0 101.543 0 99.711ZM0 86.445" fill="#c5e0b4" fill-rule="evenodd"/>
</g>
<g clip-path="url(#clip_32)">
<path d="M15.988 86.586 14.219 91.297H13.551L11.793 86.586H12.555L13.879 90.441H13.891L15.203 86.586ZM17.16 87.008C17.16 87.145 17.125 87.25 17.055 87.324 16.992 87.402 16.91 87.441 16.809 87.441 16.699 87.441 16.613 87.402 16.551 87.312 16.488 87.227 16.457 87.125 16.457 87.008 16.457 86.891 16.484 86.793 16.539 86.715 16.602 86.629 16.688 86.586 16.797 86.586 16.906 86.586 16.992 86.629 17.055 86.703 17.125 86.773 17.16 86.875 17.16 87.008ZM17.125 91.297H16.492V88.086H17.125ZM20.496 90.312C20.496 90.5 20.438 90.676 20.32 90.84 20.203 91.004 20.035 91.141 19.816 91.238 19.605 91.332 19.359 91.379 19.078 91.379 18.891 91.379 18.715 91.359 18.551 91.32 18.395 91.281 18.266 91.238 18.164 91.191 18.07 91.145 17.969 91.094 17.859 91.027V90.324C18.242 90.648 18.656 90.805 19.102 90.805 19.289 90.805 19.453 90.77 19.594 90.699 19.742 90.625 19.816 90.512 19.816 90.371 19.816 90.262 19.762 90.172 19.652 90.102 19.543 90.031 19.344 89.969 19.055 89.902 18.75 89.832 18.535 89.77 18.41 89.715 18.293 89.664 18.188 89.594 18.094 89.516 18.016 89.422 17.957 89.34 17.918 89.27 17.879 89.199 17.859 89.102 17.859 88.977 17.859 88.691 17.98 88.457 18.223 88.273 18.465 88.094 18.773 88.004 19.148 88.004 19.539 88.004 19.918 88.105 20.285 88.297V88.965C20.043 88.801 19.828 88.695 19.641 88.648 19.453 88.602 19.293 88.578 19.16 88.578 18.988 88.578 18.84 88.613 18.715 88.684 18.598 88.75 18.539 88.832 18.539 88.93 18.539 89.031 18.598 89.113 18.715 89.176 18.832 89.242 19.004 89.293 19.23 89.34 19.684 89.441 20.008 89.57 20.203 89.715 20.398 89.863 20.496 90.062 20.496 90.312ZM23.906 91.297H23.32L23.273 90.758H23.262C23.02 91.176 22.676 91.379 22.23 91.379 21.887 91.379 21.617 91.273 21.422 91.062 21.227 90.848 21.129 90.555 21.129 90.195V88.086H21.762V90.02C21.762 90.23 21.809 90.414 21.902 90.559 21.996 90.707 22.156 90.781 22.383 90.781 22.641 90.781 22.852 90.672 23.016 90.441 23.188 90.215 23.273 89.934 23.273 89.598V88.086H23.906ZM27.738 91.262C27.551 91.309 27.395 91.332 27.27 91.332 26.879 91.332 26.68 91.152 26.672 90.781H26.66C26.559 90.945 26.434 91.086 26.285 91.203 26.137 91.32 25.934 91.379 25.676 91.379 25.496 91.379 25.316 91.336 25.137 91.25 24.957 91.164 24.812 91.047 24.703 90.887 24.594 90.723 24.539 90.543 24.539 90.336 24.539 90.133 24.598 89.961 24.715 89.82 24.832 89.68 24.988 89.57 25.184 89.492 25.379 89.418 25.586 89.359 25.805 89.328 26.023 89.289 26.312 89.254 26.672 89.211 26.664 89.066 26.617 88.941 26.531 88.848 26.445 88.75 26.344 88.68 26.227 88.637 26.109 88.598 25.996 88.578 25.887 88.578 25.738 88.578 25.598 88.602 25.465 88.648 25.332 88.695 25.215 88.754 25.113 88.824 25.012 88.891 24.906 88.965 24.797 89.059V88.379C25.227 88.129 25.629 88.004 26.004 88.004 26.254 88.004 26.477 88.059 26.672 88.156 26.875 88.258 27.031 88.41 27.141 88.602 27.25 88.789 27.305 88.996 27.305 89.211V90.535C27.305 90.699 27.375 90.781 27.516 90.781 27.586 90.781 27.66 90.766 27.738 90.734ZM26.672 89.703 26.355 89.75C25.902 89.816 25.598 89.887 25.441 89.973 25.293 90.051 25.219 90.168 25.219 90.324 25.219 90.465 25.277 90.59 25.395 90.688 25.512 90.781 25.648 90.828 25.805 90.828 25.977 90.828 26.156 90.754 26.344 90.605 26.539 90.461 26.648 90.156 26.672 89.703ZM28.902 91.297H28.27V86.586H28.902ZM28.902 91.297" fill="#0d0d0d"/>
</g>
<g clip-path="url(#clip_33)">
<path d="M12.086 98.168H9.695C9.711 98.434 9.777 98.648 9.895 98.812 10.02 98.969 10.16 99.082 10.316 99.152 10.48 99.215 10.633 99.246 10.773 99.246 11.18 99.246 11.582 99.047 11.98 98.648V99.422C11.793 99.539 11.598 99.645 11.395 99.738 11.199 99.824 10.957 99.867 10.668 99.867 10.332 99.867 10.039 99.789 9.789 99.633 9.539 99.469 9.348 99.258 9.215 99 9.082 98.742 9.016 98.469 9.016 98.18 9.016 97.852 9.09 97.562 9.238 97.312 9.387 97.055 9.586 96.855 9.836 96.715 10.086 96.566 10.352 96.492 10.633 96.492 10.859 96.492 11.07 96.539 11.266 96.633 11.461 96.727 11.621 96.852 11.746 97.008 11.871 97.156 11.957 97.324 12.004 97.512 12.059 97.691 12.086 97.91 12.086 98.168ZM11.348 97.652C11.316 97.449 11.23 97.293 11.09 97.184 10.949 97.074 10.797 97.02 10.633 97.02 10.25 97.02 9.965 97.23 9.777 97.652ZM15.438 99.785H14.805V97.805C14.805 97.602 14.758 97.434 14.664 97.301 14.57 97.16 14.418 97.09 14.207 97.09 14.02 97.09 13.855 97.148 13.715 97.266 13.574 97.375 13.469 97.52 13.398 97.699 13.336 97.879 13.305 98.062 13.305 98.25V99.785H12.66V96.574H13.246L13.293 97.113H13.305C13.375 96.996 13.445 96.898 13.516 96.82 13.586 96.734 13.688 96.66 13.82 96.598 13.961 96.527 14.133 96.492 14.336 96.492 14.688 96.492 14.957 96.602 15.145 96.82 15.34 97.039 15.438 97.293 15.438 97.582ZM18.738 99.551C18.574 99.637 18.41 99.711 18.246 99.773 18.082 99.836 17.898 99.867 17.695 99.867 17.398 99.867 17.129 99.789 16.887 99.645 16.645 99.496 16.453 99.293 16.312 99.035 16.18 98.777 16.113 98.5 16.113 98.203 16.113 97.906 16.184 97.625 16.324 97.359 16.465 97.094 16.66 96.883 16.91 96.727 17.168 96.57 17.449 96.492 17.754 96.492 17.949 96.492 18.121 96.52 18.27 96.574 18.418 96.621 18.574 96.688 18.738 96.773V97.465C18.441 97.215 18.137 97.09 17.824 97.09 17.512 97.09 17.262 97.199 17.074 97.418 16.895 97.637 16.805 97.891 16.805 98.18 16.805 98.477 16.898 98.734 17.086 98.953 17.281 99.164 17.516 99.27 17.789 99.27 17.906 99.27 18.043 99.246 18.199 99.199 18.363 99.152 18.543 99.043 18.738 98.871ZM22.469 98.18C22.469 98.484 22.395 98.77 22.246 99.035 22.098 99.293 21.895 99.496 21.637 99.645 21.379 99.789 21.105 99.867 20.816 99.867 20.504 99.867 20.219 99.789 19.961 99.645 19.703 99.496 19.5 99.293 19.352 99.035 19.211 98.777 19.141 98.492 19.141 98.18 19.141 97.859 19.215 97.57 19.363 97.312 19.512 97.055 19.711 96.855 19.961 96.715 20.219 96.566 20.5 96.492 20.805 96.492 21.109 96.492 21.387 96.566 21.637 96.715 21.895 96.855 22.098 97.059 22.246 97.324 22.395 97.582 22.469 97.867 22.469 98.18ZM21.789 98.18C21.789 97.984 21.746 97.801 21.66 97.629 21.582 97.457 21.465 97.32 21.309 97.219 21.16 97.117 20.992 97.066 20.805 97.066 20.531 97.066 20.297 97.176 20.102 97.395 19.914 97.605 19.82 97.867 19.82 98.18 19.82 98.492 19.914 98.758 20.102 98.977 20.297 99.188 20.523 99.293 20.781 99.293 21.062 99.293 21.301 99.188 21.496 98.977 21.691 98.758 21.789 98.492 21.789 98.18ZM26.066 99.785H25.48L25.434 99.246H25.422C25.156 99.66 24.809 99.867 24.379 99.867 24.113 99.867 23.871 99.797 23.652 99.656 23.441 99.508 23.273 99.309 23.148 99.059 23.023 98.801 22.961 98.52 22.961 98.215 22.961 97.887 23.031 97.594 23.172 97.336 23.312 97.07 23.496 96.863 23.723 96.715 23.957 96.566 24.207 96.492 24.473 96.492 24.668 96.492 24.84 96.527 24.988 96.598 25.145 96.668 25.293 96.758 25.434 96.867V95.074H26.066ZM25.434 98.121V97.512C25.137 97.23 24.848 97.09 24.566 97.09 24.301 97.09 24.082 97.191 23.91 97.395 23.738 97.598 23.652 97.859 23.652 98.18 23.652 98.492 23.734 98.754 23.898 98.965 24.062 99.168 24.27 99.27 24.52 99.27 24.66 99.27 24.801 99.23 24.941 99.152 25.082 99.066 25.199 98.938 25.293 98.766 25.387 98.594 25.434 98.379 25.434 98.121ZM29.91 98.168H27.52C27.535 98.434 27.602 98.648 27.719 98.812 27.844 98.969 27.984 99.082 28.141 99.152 28.305 99.215 28.457 99.246 28.598 99.246 29.004 99.246 29.406 99.047 29.805 98.648V99.422C29.617 99.539 29.422 99.645 29.219 99.738 29.023 99.824 28.781 99.867 28.492 99.867 28.156 99.867 27.863 99.789 27.613 99.633 27.363 99.469 27.172 99.258 27.039 99 26.906 98.742 26.84 98.469 26.84 98.18 26.84 97.852 26.914 97.562 27.062 97.312 27.211 97.055 27.41 96.855 27.66 96.715 27.91 96.566 28.176 96.492 28.457 96.492 28.684 96.492 28.895 96.539 29.09 96.633 29.285 96.727 29.445 96.852 29.57 97.008 29.695 97.156 29.781 97.324 29.828 97.512 29.883 97.691 29.91 97.91 29.91 98.168ZM29.172 97.652C29.141 97.449 29.055 97.293 28.914 97.184 28.773 97.074 28.621 97.02 28.457 97.02 28.074 97.02 27.789 97.23 27.602 97.652ZM32.41 97.207C32.25 97.145 32.133 97.113 32.059 97.113 31.816 97.113 31.605 97.23 31.426 97.465 31.254 97.691 31.168 97.973 31.168 98.309V99.785H30.535V96.574H31.109L31.168 97.172H31.18C31.324 96.734 31.625 96.516 32.07 96.516 32.188 96.516 32.297 96.531 32.41 96.562ZM32.41 97.207" fill="#0d0d0d"/>
</g>
<g clip-path="url(#clip_34)">
<g clip-path="url(#clip_35)">
<path d="M65.098 25.82C65.238 25.82 65.391 25.82 65.391 25.656 65.391 25.48 65.238 25.48 65.098 25.48H61.488C61.594 24.344 62.566 23.523 63.773 23.523H65.098C65.238 23.523 65.391 23.523 65.391 23.348 65.391 23.184 65.238 23.184 65.098 23.184H63.75C62.297 23.184 61.137 24.285 61.137 25.656 61.137 27.016 62.297 28.117 63.75 28.117H65.098C65.238 28.117 65.391 28.117 65.391 27.953 65.391 27.777 65.238 27.777 65.098 27.777H63.773C62.566 27.777 61.594 26.957 61.488 25.82ZM65.098 25.82"/>
</g>
<g clip-path="url(#clip_36)">
<path d="M70.758 25.105H71.062L72.34 27.074C72.422 27.215 72.621 27.543 72.715 27.672 72.773 27.777 72.809 27.777 72.996 27.777H74.168C74.32 27.777 74.449 27.777 74.449 27.625 74.449 27.555 74.402 27.496 74.32 27.484 74.016 27.414 73.594 26.852 73.395 26.582 73.336 26.488 72.902 25.926 72.34 25.012 73.09 24.871 73.828 24.555 73.828 23.535 73.828 22.363 72.574 21.953 71.566 21.953H68.895C68.742 21.953 68.613 21.953 68.613 22.105 68.613 22.246 68.766 22.246 68.836 22.246 69.328 22.246 69.363 22.305 69.363 22.727V26.992C69.363 27.426 69.328 27.484 68.836 27.484 68.766 27.484 68.613 27.484 68.613 27.625 68.613 27.777 68.742 27.777 68.895 27.777H71.227C71.379 27.777 71.508 27.777 71.508 27.625 71.508 27.484 71.367 27.484 71.273 27.484 70.781 27.484 70.758 27.414 70.758 26.992ZM72.398 24.684C72.633 24.379 72.656 23.922 72.656 23.547 72.656 23.137 72.609 22.691 72.34 22.34 72.68 22.422 73.523 22.68 73.523 23.535 73.523 24.098 73.266 24.531 72.398 24.684ZM70.758 22.703C70.758 22.527 70.758 22.246 71.285 22.246 72 22.246 72.363 22.551 72.363 23.547 72.363 24.648 72.094 24.812 70.758 24.812ZM69.598 27.484C69.668 27.332 69.668 27.086 69.668 27.016V22.715C69.668 22.633 69.668 22.398 69.598 22.246H70.57C70.453 22.387 70.453 22.551 70.453 22.68V27.016C70.453 27.098 70.453 27.332 70.523 27.484ZM71.402 25.105C71.473 25.094 71.496 25.094 71.566 25.094 71.695 25.094 71.883 25.07 72.012 25.059 72.141 25.258 73.055 26.77 73.77 27.484H72.938ZM71.402 25.105"/>
</g>
<g clip-path="url(#clip_37)">
<path d="M75.777 20.031C75.777 19.938 75.777 19.797 75.625 19.797 75.484 19.797 75.484 19.938 75.484 20.031V25.516C75.484 25.609 75.484 25.75 75.625 25.75 75.777 25.75 75.777 25.609 75.777 25.516ZM78.453 20.219C78.453 20.207 78.465 20.137 78.465 20.137 78.465 20.078 78.418 20.078 78.395 20.078 78.312 20.078 78.242 20.113 78.031 20.219 77.68 20.395 77.457 20.5 77.457 20.629 77.457 20.676 77.516 20.676 77.539 20.676 77.609 20.676 77.68 20.641 77.902 20.523 77.773 21.566 77.574 22.434 77.527 22.68 77.422 23.137 77.305 23.629 77.012 24.168 76.941 24.309 76.941 24.32 76.941 24.332 76.941 24.379 76.988 24.379 77.012 24.379 77.07 24.379 77.27 24.332 77.445 24.156 77.457 24.133 77.551 24.004 77.715 23.617 77.855 23.301 77.926 23.043 77.973 22.867 78.219 21.918 78.828 20.43 79.824 20.43 80.152 20.43 80.469 20.605 80.469 20.945 80.469 21.227 80.293 21.344 80.07 21.461 79.812 21.602 79.332 21.766 79.145 21.824 78.957 21.883 78.898 21.906 78.793 21.977 78.652 22.094 78.652 22.141 78.652 22.152 78.652 22.188 78.676 22.211 78.723 22.211 78.746 22.211 78.758 22.199 78.781 22.199 78.793 22.199 78.934 22.176 79.086 22.176 79.695 22.176 80.27 22.48 80.27 23.09 80.27 23.277 80.211 23.652 79.871 23.828 79.637 23.957 79.262 24.016 78.992 24.016 78.758 24.016 78.43 23.969 78.16 23.734 78.09 23.676 78.09 23.676 78.043 23.676 77.891 23.676 77.574 23.875 77.574 23.992 77.574 24.039 77.773 24.18 77.961 24.273 78.23 24.379 78.441 24.379 78.57 24.379 79.602 24.379 80.832 23.758 80.832 22.82 80.832 22.223 80.316 21.906 79.812 21.824 80.234 21.625 81.02 21.238 81.02 20.676 81.02 20.348 80.738 20.066 80.246 20.066 79.707 20.066 78.91 20.395 78.324 21.133ZM82.43 20.031C82.43 19.938 82.43 19.797 82.277 19.797 82.137 19.797 82.137 19.938 82.137 20.031V25.516C82.137 25.609 82.137 25.75 82.277 25.75 82.43 25.75 82.43 25.609 82.43 25.516ZM82.43 20.031"/>
</g>
<g clip-path="url(#clip_38)">
<path d="M87.465 21.473C87.523 21.402 87.547 21.367 87.547 21.332 87.547 21.227 87.465 21.18 87.406 21.18 87.336 21.18 87.324 21.191 87.254 21.262L85.953 22.562 84.641 21.262C84.582 21.203 84.559 21.18 84.5 21.18 84.418 21.18 84.348 21.238 84.348 21.332 84.348 21.379 84.371 21.402 84.441 21.473L85.742 22.762 84.441 24.062C84.359 24.145 84.348 24.18 84.348 24.215 84.348 24.297 84.418 24.367 84.5 24.367 84.559 24.367 84.57 24.344 84.641 24.285L85.953 22.973 87.301 24.332C87.336 24.355 87.359 24.367 87.406 24.367 87.465 24.367 87.547 24.309 87.547 24.215 87.547 24.168 87.535 24.156 87.512 24.133 87.5 24.109 86.352 22.961 86.152 22.773ZM87.465 21.473"/>
</g>
<g clip-path="url(#clip_39)">
<path d="M89.773 20.031C89.773 19.938 89.773 19.797 89.621 19.797 89.48 19.797 89.48 19.938 89.48 20.031V25.516C89.48 25.609 89.48 25.75 89.621 25.75 89.773 25.75 89.773 25.609 89.773 25.516ZM92.449 20.219C92.449 20.207 92.461 20.137 92.461 20.137 92.461 20.078 92.414 20.078 92.391 20.078 92.309 20.078 92.238 20.113 92.027 20.219 91.676 20.395 91.453 20.5 91.453 20.629 91.453 20.676 91.512 20.676 91.535 20.676 91.605 20.676 91.676 20.641 91.898 20.523 91.77 21.566 91.57 22.434 91.523 22.68 91.418 23.137 91.301 23.629 91.008 24.168 90.938 24.309 90.938 24.32 90.938 24.332 90.938 24.379 90.984 24.379 91.008 24.379 91.066 24.379 91.266 24.332 91.441 24.156 91.453 24.133 91.547 24.004 91.711 23.617 91.852 23.301 91.922 23.043 91.969 22.867 92.215 21.918 92.824 20.43 93.82 20.43 94.148 20.43 94.465 20.605 94.465 20.945 94.465 21.227 94.289 21.344 94.066 21.461 93.809 21.602 93.328 21.766 93.141 21.824 92.953 21.883 92.895 21.906 92.789 21.977 92.648 22.094 92.648 22.141 92.648 22.152 92.648 22.188 92.672 22.211 92.719 22.211 92.742 22.211 92.754 22.199 92.777 22.199 92.789 22.199 92.93 22.176 93.082 22.176 93.691 22.176 94.266 22.48 94.266 23.09 94.266 23.277 94.207 23.652 93.867 23.828 93.633 23.957 93.258 24.016 92.988 24.016 92.754 24.016 92.426 23.969 92.156 23.734 92.086 23.676 92.086 23.676 92.039 23.676 91.887 23.676 91.57 23.875 91.57 23.992 91.57 24.039 91.77 24.18 91.957 24.273 92.227 24.379 92.438 24.379 92.566 24.379 93.598 24.379 94.828 23.758 94.828 22.82 94.828 22.223 94.312 21.906 93.809 21.824 94.23 21.625 95.016 21.238 95.016 20.676 95.016 20.348 94.734 20.066 94.242 20.066 93.703 20.066 92.906 20.395 92.32 21.133ZM96.422 20.031C96.422 19.938 96.422 19.797 96.27 19.797 96.129 19.797 96.129 19.938 96.129 20.031V25.516C96.129 25.609 96.129 25.75 96.27 25.75 96.422 25.75 96.422 25.609 96.422 25.516ZM96.422 20.031"/>
</g>
</g>
<g clip-path="url(#clip_40)">
<path d="M47.52 .863 47.703 8.168 47.125 8.184 46.945 .879ZM49.324 7.742 47.5 11.633 45.484 7.84ZM49.324 7.742" fill="#bfbfbf"/>
</g>
<g clip-path="url(#clip_41)">
<path d="M47.328 45.566V40.836H46.754V45.566ZM48.961 41.223 47.039 37.379 45.117 41.223ZM48.961 41.223" fill="#bfbfbf"/>
</g>
<g clip-path="url(#clip_42)">
<path d="M35.156 12.234H38.176V15.359H35.156Z" fill="#f8cbad"/>
</g>
<g clip-path="url(#clip_43)">
<path stroke-width=".38437" stroke-linecap="butt" stroke-miterlimit="8" stroke-linejoin="miter" fill="none" stroke="#000000" d="M35.152 12.234H38.175V15.359H35.152Z"/>
</g>
<g clip-path="url(#clip_44)">
<path d="M38.176 12.234H41.198999V15.359H38.176Z" fill="#f8cbad"/>
</g>
<g clip-path="url(#clip_45)">
<path stroke-width=".38437" stroke-linecap="butt" stroke-miterlimit="8" stroke-linejoin="miter" fill="none" stroke="#000000" d="M38.176 12.234H41.198999V15.359H38.176Z"/>
</g>
<g clip-path="url(#clip_46)">
<path d="M41.199 12.234H44.222V15.359H41.199Z" fill="#ffffff"/>
</g>
<g clip-path="url(#clip_47)">
<path stroke-width=".38437" stroke-linecap="butt" stroke-miterlimit="8" stroke-linejoin="miter" fill="none" stroke="#000000" d="M41.199 12.234H44.222V15.359H41.199Z"/>
</g>
<g clip-path="url(#clip_48)">
<path d="M44.234 12.234H47.257V15.359H44.234Z" fill="#ffffff"/>
</g>
<g clip-path="url(#clip_49)">
<path stroke-width=".38437" stroke-linecap="butt" stroke-miterlimit="8" stroke-linejoin="miter" fill="none" stroke="#000000" d="M44.234 12.234H47.257V15.359H44.234Z"/>
</g>
<g clip-path="url(#clip_50)">
<path d="M35.156 15.359H38.176V18.488H35.156Z" fill="#f8cbad"/>
</g>
<g clip-path="url(#clip_51)">
<path stroke-width=".38437" stroke-linecap="butt" stroke-miterlimit="8" stroke-linejoin="miter" fill="none" stroke="#000000" d="M35.152 15.359H38.175V18.488H35.152Z"/>
</g>
<g clip-path="url(#clip_52)">
<path d="M38.176 15.359H41.198999V18.488H38.176Z" fill="#f8cbad"/>
</g>
<g clip-path="url(#clip_53)">
<path stroke-width=".38437" stroke-linecap="butt" stroke-miterlimit="8" stroke-linejoin="miter" fill="none" stroke="#000000" d="M38.176 15.359H41.198999V18.488H38.176Z"/>
</g>
<g clip-path="url(#clip_54)">
<path d="M41.199 15.359H44.222V18.488H41.199Z" fill="#ffffff"/>
</g>
<g clip-path="url(#clip_55)">
<path stroke-width=".38437" stroke-linecap="butt" stroke-miterlimit="8" stroke-linejoin="miter" fill="none" stroke="#000000" d="M41.199 15.359H44.222V18.488H41.199Z"/>
</g>
<g clip-path="url(#clip_56)">
<path d="M44.234 15.359H47.257V18.488H44.234Z" fill="#ffffff"/>
</g>
<g clip-path="url(#clip_57)">
<path stroke-width=".38437" stroke-linecap="butt" stroke-miterlimit="8" stroke-linejoin="miter" fill="none" stroke="#000000" d="M44.234 15.359H47.257V18.488H44.234Z"/>
</g>
<g clip-path="url(#clip_58)">
<path d="M35.156 18.453H38.176V21.581999H35.156Z" fill="#ffffff"/>
</g>
<g clip-path="url(#clip_59)">
<path stroke-width=".38437" stroke-linecap="butt" stroke-miterlimit="8" stroke-linejoin="miter" fill="none" stroke="#000000" d="M35.152 18.453H38.175V21.581999H35.152Z"/>
</g>
<g clip-path="url(#clip_60)">
<path d="M38.176 18.453H41.198999V21.581999H38.176Z" fill="#ffffff"/>
</g>
<g clip-path="url(#clip_61)">
<path stroke-width=".38437" stroke-linecap="butt" stroke-miterlimit="8" stroke-linejoin="miter" fill="none" stroke="#000000" d="M38.176 18.453H41.198999V21.581999H38.176Z"/>
</g>
<g clip-path="url(#clip_62)">
<path d="M41.199 18.453H44.222V21.581999H41.199Z" fill="#f8cbad"/>
</g>
<g clip-path="url(#clip_63)">
<path stroke-width=".38437" stroke-linecap="butt" stroke-miterlimit="8" stroke-linejoin="miter" fill="none" stroke="#000000" d="M41.199 18.453H44.222V21.581999H41.199Z"/>
</g>
<g clip-path="url(#clip_64)">
<path d="M44.234 18.453H47.257V21.581999H44.234Z" fill="#f8cbad"/>
</g>
<g clip-path="url(#clip_65)">
<path stroke-width=".38437" stroke-linecap="butt" stroke-miterlimit="8" stroke-linejoin="miter" fill="none" stroke="#000000" d="M44.234 18.453H47.257V21.581999H44.234Z"/>
</g>
<g clip-path="url(#clip_66)">
<path d="M35.176 21.582H38.198999V24.707H35.176Z" fill="#ffffff"/>
</g>
<g clip-path="url(#clip_67)">
<path stroke-width=".38437" stroke-linecap="butt" stroke-miterlimit="8" stroke-linejoin="miter" fill="none" stroke="#000000" d="M35.176 21.582H38.198999V24.707H35.176Z"/>
</g>
<g clip-path="url(#clip_68)">
<path d="M38.199 21.582H41.222V24.707H38.199Z" fill="#ffffff"/>
</g>
<g clip-path="url(#clip_69)">
<path stroke-width=".38437" stroke-linecap="butt" stroke-miterlimit="8" stroke-linejoin="miter" fill="none" stroke="#000000" d="M38.199 21.582H41.222V24.707H38.199Z"/>
</g>
<g clip-path="url(#clip_70)">
<path d="M41.223 21.582H44.246V24.707H41.223Z" fill="#f8cbad"/>
</g>
<g clip-path="url(#clip_71)">
<path stroke-width=".38437" stroke-linecap="butt" stroke-miterlimit="8" stroke-linejoin="miter" fill="none" stroke="#000000" d="M41.223 21.582H44.246V24.707H41.223Z"/>
</g>
<g clip-path="url(#clip_72)">
<path d="M44.258 21.582H47.281V24.707H44.258Z" fill="#f8cbad"/>
</g>
<g clip-path="url(#clip_73)">
<path stroke-width=".38437" stroke-linecap="butt" stroke-miterlimit="8" stroke-linejoin="miter" fill="none" stroke="#000000" d="M44.258 21.582H47.281V24.707H44.258Z"/>
</g>
<g clip-path="url(#clip_74)">
<path d="M35.141 24.637H38.163999V27.765999H35.141Z" fill="#ffffff"/>
</g>
<g clip-path="url(#clip_75)">
<path stroke-width=".38437" stroke-linecap="butt" stroke-miterlimit="8" stroke-linejoin="miter" fill="none" stroke="#000000" d="M35.141 24.637H38.163999V27.765999H35.141Z"/>
</g>
<g clip-path="url(#clip_76)">
<path d="M38.164 24.637H41.187V27.765999H38.164Z" fill="#ffffff"/>
</g>
<g clip-path="url(#clip_77)">
<path stroke-width=".38437" stroke-linecap="butt" stroke-miterlimit="8" stroke-linejoin="miter" fill="none" stroke="#000000" d="M38.164 24.637H41.187V27.765999H38.164Z"/>
</g>
<g clip-path="url(#clip_78)">
<path d="M41.188 24.637H44.211V27.765999H41.188Z" fill="#ffffff"/>
</g>
<g clip-path="url(#clip_79)">
<path stroke-width=".38437" stroke-linecap="butt" stroke-miterlimit="8" stroke-linejoin="miter" fill="none" stroke="#000000" d="M41.188 24.637H44.211V27.765999H41.188Z"/>
</g>
<g clip-path="url(#clip_80)">
<path d="M44.223 24.637H47.246V27.765999H44.223Z" fill="#ffffff"/>
</g>
<g clip-path="url(#clip_81)">
<path stroke-width=".38437" stroke-linecap="butt" stroke-miterlimit="8" stroke-linejoin="miter" fill="none" stroke="#000000" d="M44.223 24.637H47.246V27.765999H44.223Z"/>
</g>
<g clip-path="url(#clip_82)">
<path d="M35.141 27.766H38.163999V30.895H35.141Z" fill="#ffffff"/>
</g>
<g clip-path="url(#clip_83)">
<path stroke-width=".38437" stroke-linecap="butt" stroke-miterlimit="8" stroke-linejoin="miter" fill="none" stroke="#000000" d="M35.141 27.766H38.163999V30.895H35.141Z"/>
</g>
<g clip-path="url(#clip_84)">
<path d="M38.164 27.766H41.187V30.895H38.164Z" fill="#ffffff"/>
</g>
<g clip-path="url(#clip_85)">
<path stroke-width=".38437" stroke-linecap="butt" stroke-miterlimit="8" stroke-linejoin="miter" fill="none" stroke="#000000" d="M38.164 27.766H41.187V30.895H38.164Z"/>
</g>
<g clip-path="url(#clip_86)">
<path d="M41.188 27.766H44.211V30.895H41.188Z" fill="#ffffff"/>
</g>
<g clip-path="url(#clip_87)">
<path stroke-width=".38437" stroke-linecap="butt" stroke-miterlimit="8" stroke-linejoin="miter" fill="none" stroke="#000000" d="M41.188 27.766H44.211V30.895H41.188Z"/>
</g>
<g clip-path="url(#clip_88)">
<path d="M44.223 27.766H47.246V30.895H44.223Z" fill="#ffffff"/>
</g>
<g clip-path="url(#clip_89)">
<path stroke-width=".38437" stroke-linecap="butt" stroke-miterlimit="8" stroke-linejoin="miter" fill="none" stroke="#000000" d="M44.223 27.766H47.246V30.895H44.223Z"/>
</g>
<g clip-path="url(#clip_90)">
<path d="M35.141 30.859H38.163999V33.988H35.141Z" fill="#ffffff"/>
</g>
<g clip-path="url(#clip_91)">
<path stroke-width=".38437" stroke-linecap="butt" stroke-miterlimit="8" stroke-linejoin="miter" fill="none" stroke="#000000" d="M35.141 30.859H38.163999V33.988H35.141Z"/>
</g>
<g clip-path="url(#clip_92)">
<path d="M38.164 30.859H41.187V33.988H38.164Z" fill="#ffffff"/>
</g>
<g clip-path="url(#clip_93)">
<path stroke-width=".38437" stroke-linecap="butt" stroke-miterlimit="8" stroke-linejoin="miter" fill="none" stroke="#000000" d="M38.164 30.859H41.187V33.988H38.164Z"/>
</g>
<g clip-path="url(#clip_94)">
<path d="M41.188 30.859H44.211V33.988H41.188Z" fill="#ffffff"/>
</g>
<g clip-path="url(#clip_95)">
<path stroke-width=".38437" stroke-linecap="butt" stroke-miterlimit="8" stroke-linejoin="miter" fill="none" stroke="#000000" d="M41.188 30.859H44.211V33.988H41.188Z"/>
</g>
<g clip-path="url(#clip_96)">
<path d="M44.223 30.859H47.246V33.988H44.223Z" fill="#ffffff"/>
</g>
<g clip-path="url(#clip_97)">
<path stroke-width=".38437" stroke-linecap="butt" stroke-miterlimit="8" stroke-linejoin="miter" fill="none" stroke="#000000" d="M44.223 30.859H47.246V33.988H44.223Z"/>
</g>
<g clip-path="url(#clip_98)">
<path d="M35.164 33.988H38.187V37.113H35.164Z" fill="#ffffff"/>
</g>
<g clip-path="url(#clip_99)">
<path stroke-width=".38437" stroke-linecap="butt" stroke-miterlimit="8" stroke-linejoin="miter" fill="none" stroke="#000000" d="M35.164 33.988H38.187V37.113H35.164Z"/>
</g>
<g clip-path="url(#clip_100)">
<path d="M38.188 33.988H41.211V37.113H38.188Z" fill="#ffffff"/>
</g>
<g clip-path="url(#clip_101)">
<path stroke-width=".38437" stroke-linecap="butt" stroke-miterlimit="8" stroke-linejoin="miter" fill="none" stroke="#000000" d="M38.188 33.988H41.211V37.113H38.188Z"/>
</g>
<g clip-path="url(#clip_102)">
<path d="M41.211 33.988H44.233999V37.113H41.211Z" fill="#ffffff"/>
</g>
<g clip-path="url(#clip_103)">
<path stroke-width=".38437" stroke-linecap="butt" stroke-miterlimit="8" stroke-linejoin="miter" fill="none" stroke="#000000" d="M41.211 33.988H44.233999V37.113H41.211Z"/>
</g>
<g clip-path="url(#clip_104)">
<path d="M44.246 33.988H47.268999V37.113H44.246Z" fill="#ffffff"/>
</g>
<g clip-path="url(#clip_105)">
<path stroke-width=".38437" stroke-linecap="butt" stroke-miterlimit="8" stroke-linejoin="miter" fill="none" stroke="#000000" d="M44.246 33.988H47.268999V37.113H44.246Z"/>
</g>
<g clip-path="url(#clip_106)">
<path d="M47.199 24.617H50.219V27.742H47.199Z" fill="#f8cbad"/>
</g>
<g clip-path="url(#clip_107)">
<path stroke-width=".38437" stroke-linecap="butt" stroke-miterlimit="8" stroke-linejoin="miter" fill="none" stroke="#000000" d="M47.199 24.617H50.219V27.742H47.199Z"/>
</g>
<g clip-path="url(#clip_108)">
<path d="M53.242 24.617H56.265V27.742H53.242Z" fill="#ffffff"/>
</g>
<g clip-path="url(#clip_109)">
<path stroke-width=".38437" stroke-linecap="butt" stroke-miterlimit="8" stroke-linejoin="miter" fill="none" stroke="#000000" d="M53.242 24.617H56.265V27.742H53.242Z"/>
</g>
<g clip-path="url(#clip_110)">
<path d="M56.277 24.617H59.3V27.742H56.277Z" fill="#ffffff"/>
</g>
<g clip-path="url(#clip_111)">
<path stroke-width=".38437" stroke-linecap="butt" stroke-miterlimit="8" stroke-linejoin="miter" fill="none" stroke="#000000" d="M56.277 24.617H59.3V27.742H56.277Z"/>
</g>
<g clip-path="url(#clip_112)">
<path d="M50.219 27.742H53.242V30.871H50.219Z" fill="#f8cbad"/>
</g>
<g clip-path="url(#clip_113)">
<path stroke-width=".38437" stroke-linecap="butt" stroke-miterlimit="8" stroke-linejoin="miter" fill="none" stroke="#000000" d="M50.219 27.742H53.242V30.871H50.219Z"/>
</g>
<g clip-path="url(#clip_114)">
<path d="M53.242 27.742H56.265V30.871H53.242Z" fill="#ffffff"/>
</g>
<g clip-path="url(#clip_115)">
<path stroke-width=".38437" stroke-linecap="butt" stroke-miterlimit="8" stroke-linejoin="miter" fill="none" stroke="#000000" d="M53.242 27.742H56.265V30.871H53.242Z"/>
</g>
<g clip-path="url(#clip_116)">
<path d="M56.277 27.742H59.3V30.871H56.277Z" fill="#ffffff"/>
</g>
<g clip-path="url(#clip_117)">
<path stroke-width=".38437" stroke-linecap="butt" stroke-miterlimit="8" stroke-linejoin="miter" fill="none" stroke="#000000" d="M56.277 27.742H59.3V30.871H56.277Z"/>
</g>
<g clip-path="url(#clip_118)">
<path d="M47.199 30.836H50.219V33.965H47.199Z" fill="#ffffff"/>
</g>
<g clip-path="url(#clip_119)">
<path stroke-width=".38437" stroke-linecap="butt" stroke-miterlimit="8" stroke-linejoin="miter" fill="none" stroke="#000000" d="M47.199 30.836H50.219V33.965H47.199Z"/>
</g>
<g clip-path="url(#clip_120)">
<path d="M50.219 30.836H53.242V33.965H50.219Z" fill="#ffffff"/>
</g>
<g clip-path="url(#clip_121)">
<path stroke-width=".38437" stroke-linecap="butt" stroke-miterlimit="8" stroke-linejoin="miter" fill="none" stroke="#000000" d="M50.219 30.836H53.242V33.965H50.219Z"/>
</g>
<g clip-path="url(#clip_122)">
<path d="M53.242 30.836H56.265V33.965H53.242Z" fill="#f8cbad"/>
</g>
<g clip-path="url(#clip_123)">
<path stroke-width=".38437" stroke-linecap="butt" stroke-miterlimit="8" stroke-linejoin="miter" fill="none" stroke="#000000" d="M53.242 30.836H56.265V33.965H53.242Z"/>
</g>
<g clip-path="url(#clip_124)">
<path d="M47.219 33.965H50.242V37.09H47.219Z" fill="#ffffff"/>
</g>
<g clip-path="url(#clip_125)">
<path stroke-width=".38437" stroke-linecap="butt" stroke-miterlimit="8" stroke-linejoin="miter" fill="none" stroke="#000000" d="M47.219 33.965H50.242V37.09H47.219Z"/>
</g>
<g clip-path="url(#clip_126)">
<path d="M50.242 33.965H53.265V37.09H50.242Z" fill="#ffffff"/>
</g>
<g clip-path="url(#clip_127)">
<path stroke-width=".38437" stroke-linecap="butt" stroke-miterlimit="8" stroke-linejoin="miter" fill="none" stroke="#000000" d="M50.242 33.965H53.265V37.09H50.242Z"/>
</g>
<g clip-path="url(#clip_128)">
<path d="M56.301 33.965H59.323999V37.09H56.301Z" fill="#f8cbad"/>
</g>
<g clip-path="url(#clip_129)">
<path stroke-width=".38437" stroke-linecap="butt" stroke-miterlimit="8" stroke-linejoin="miter" fill="none" stroke="#000000" d="M56.301 33.965H59.323999V37.09H56.301Z"/>
</g>
<g clip-path="url(#clip_130)">
<path d="M47.164 12.277H50.187V15.402H47.164Z" fill="#ffffff"/>
</g>
<g clip-path="url(#clip_131)">
<path stroke-width=".38437" stroke-linecap="butt" stroke-miterlimit="8" stroke-linejoin="miter" fill="none" stroke="#000000" d="M47.164 12.277H50.187V15.402H47.164Z"/>
</g>
<g clip-path="url(#clip_132)">
<path d="M50.188 12.277H53.211V15.402H50.188Z" fill="#ffffff"/>
</g>
<g clip-path="url(#clip_133)">
<path stroke-width=".38437" stroke-linecap="butt" stroke-miterlimit="8" stroke-linejoin="miter" fill="none" stroke="#000000" d="M50.188 12.277H53.211V15.402H50.188Z"/>
</g>
<g clip-path="url(#clip_134)">
<path d="M53.211 12.277H56.233999V15.402H53.211Z" fill="#ffffff"/>
</g>
<g clip-path="url(#clip_135)">
<path stroke-width=".38437" stroke-linecap="butt" stroke-miterlimit="8" stroke-linejoin="miter" fill="none" stroke="#000000" d="M53.211 12.277H56.233999V15.402H53.211Z"/>
</g>
<g clip-path="url(#clip_136)">
<path d="M56.246 12.277H59.268999V15.402H56.246Z" fill="#ffffff"/>
</g>
<g clip-path="url(#clip_137)">
<path stroke-width=".38437" stroke-linecap="butt" stroke-miterlimit="8" stroke-linejoin="miter" fill="none" stroke="#000000" d="M56.246 12.277H59.268999V15.402H56.246Z"/>
</g>
<g clip-path="url(#clip_138)">
<path d="M47.164 15.402H50.187V18.531H47.164Z" fill="#ffffff"/>
</g>
<g clip-path="url(#clip_139)">
<path stroke-width=".38437" stroke-linecap="butt" stroke-miterlimit="8" stroke-linejoin="miter" fill="none" stroke="#000000" d="M47.164 15.402H50.187V18.531H47.164Z"/>
</g>
<g clip-path="url(#clip_140)">
<path d="M50.188 15.402H53.211V18.531H50.188Z" fill="#ffffff"/>
</g>
<g clip-path="url(#clip_141)">
<path stroke-width=".38437" stroke-linecap="butt" stroke-miterlimit="8" stroke-linejoin="miter" fill="none" stroke="#000000" d="M50.188 15.402H53.211V18.531H50.188Z"/>
</g>
<g clip-path="url(#clip_142)">
<path d="M53.211 15.402H56.233999V18.531H53.211Z" fill="#ffffff"/>
</g>
<g clip-path="url(#clip_143)">
<path stroke-width=".38437" stroke-linecap="butt" stroke-miterlimit="8" stroke-linejoin="miter" fill="none" stroke="#000000" d="M53.211 15.402H56.233999V18.531H53.211Z"/>
</g>
<g clip-path="url(#clip_144)">
<path d="M56.246 15.402H59.268999V18.531H56.246Z" fill="#ffffff"/>
</g>
<g clip-path="url(#clip_145)">
<path stroke-width=".38437" stroke-linecap="butt" stroke-miterlimit="8" stroke-linejoin="miter" fill="none" stroke="#000000" d="M56.246 15.402H59.268999V18.531H56.246Z"/>
</g>
<g clip-path="url(#clip_146)">
<path d="M47.164 18.496H50.187V21.625H47.164Z" fill="#ffffff"/>
</g>
<g clip-path="url(#clip_147)">
<path stroke-width=".38437" stroke-linecap="butt" stroke-miterlimit="8" stroke-linejoin="miter" fill="none" stroke="#000000" d="M47.164 18.496H50.187V21.625H47.164Z"/>
</g>
<g clip-path="url(#clip_148)">
<path d="M50.188 18.496H53.211V21.625H50.188Z" fill="#ffffff"/>
</g>
<g clip-path="url(#clip_149)">
<path stroke-width=".38437" stroke-linecap="butt" stroke-miterlimit="8" stroke-linejoin="miter" fill="none" stroke="#000000" d="M50.188 18.496H53.211V21.625H50.188Z"/>
</g>
<g clip-path="url(#clip_150)">
<path d="M53.211 18.496H56.233999V21.625H53.211Z" fill="#ffffff"/>
</g>
<g clip-path="url(#clip_151)">
<path stroke-width=".38437" stroke-linecap="butt" stroke-miterlimit="8" stroke-linejoin="miter" fill="none" stroke="#000000" d="M53.211 18.496H56.233999V21.625H53.211Z"/>
</g>
<g clip-path="url(#clip_152)">
<path d="M56.246 18.496H59.268999V21.625H56.246Z" fill="#ffffff"/>
</g>
<g clip-path="url(#clip_153)">
<path stroke-width=".38437" stroke-linecap="butt" stroke-miterlimit="8" stroke-linejoin="miter" fill="none" stroke="#000000" d="M56.246 18.496H59.268999V21.625H56.246Z"/>
</g>
<g clip-path="url(#clip_154)">
<path d="M47.188 21.625H50.211V24.75H47.188Z" fill="#ffffff"/>
</g>
<g clip-path="url(#clip_155)">
<path stroke-width=".38437" stroke-linecap="butt" stroke-miterlimit="8" stroke-linejoin="miter" fill="none" stroke="#000000" d="M47.188 21.625H50.211V24.75H47.188Z"/>
</g>
<g clip-path="url(#clip_156)">
<path d="M50.211 21.625H53.233999V24.75H50.211Z" fill="#ffffff"/>
</g>
<g clip-path="url(#clip_157)">
<path stroke-width=".38437" stroke-linecap="butt" stroke-miterlimit="8" stroke-linejoin="miter" fill="none" stroke="#000000" d="M50.211 21.625H53.233999V24.75H50.211Z"/>
</g>
<g clip-path="url(#clip_158)">
<path d="M53.234 21.625H56.257V24.75H53.234Z" fill="#ffffff"/>
</g>
<g clip-path="url(#clip_159)">
<path stroke-width=".38437" stroke-linecap="butt" stroke-miterlimit="8" stroke-linejoin="miter" fill="none" stroke="#000000" d="M53.234 21.625H56.257V24.75H53.234Z"/>
</g>
<g clip-path="url(#clip_160)">
<path d="M56.27 21.625H59.293V24.75H56.27Z" fill="#ffffff"/>
</g>
<g clip-path="url(#clip_161)">
<path stroke-width=".38437" stroke-linecap="butt" stroke-miterlimit="8" stroke-linejoin="miter" fill="none" stroke="#000000" d="M56.27 21.625H59.293V24.75H56.27Z"/>
</g>
<g clip-path="url(#clip_162)">
<path d="M56.312 30.84H59.335V33.969H56.312Z" fill="#ffffff"/>
</g>
<g clip-path="url(#clip_163)">
<path stroke-width=".38437" stroke-linecap="butt" stroke-miterlimit="8" stroke-linejoin="miter" fill="none" stroke="#000000" d="M56.312 30.84H59.335V33.969H56.312Z"/>
</g>
<g clip-path="url(#clip_164)">
<path d="M53.172 33.973H56.195V37.102H53.172Z" fill="#ffffff"/>
</g>
<g clip-path="url(#clip_165)">
<path stroke-width=".38437" stroke-linecap="butt" stroke-miterlimit="8" stroke-linejoin="miter" fill="none" stroke="#000000" d="M53.172 33.973H56.195V37.102H53.172Z"/>
</g>
</g>
</svg>
